<svg width="24" height="22" fill="none" xmlns="http://www.w3.org/2000/svg"><path d="M23.014 4.006H4.249L3.969.898A.986.986 0 002.99 0H.985a.986.986 0 000 1.972h1.101L3.22 14.603c.08.91.572 1.898 1.42 2.57C3.112 19.123 4.507 22 6.992 22c2.063 0 3.517-2.057 2.81-4.006h5.395C14.49 19.94 15.943 22 18.008 22a2.992 2.992 0 002.988-2.989 2.992 2.992 0 00-2.988-2.988H7a1.83 1.83 0 01-1.683-1.11l15.752-.926a.986.986 0 00.898-.745L23.97 5.23a.986.986 0 00-.956-1.224zM6.994 20.029a1.018 1.018 0 010-2.035 1.018 1.018 0 010 2.035zm11.014 0a1.018 1.018 0 010-2.035 1.018 1.018 0 010 2.035zm2.223-7.968l-15.18.892-.625-6.976h17.326l-1.521 6.084z" fill="#262626"/></svg>