<svg width="25" height="22" fill="none" xmlns="http://www.w3.org/2000/svg"><path d="M23.973 4.006H4.426L4.136.898C4.087.389 3.643 0 3.112 0H1.027C.46 0 0 .441 0 .986c0 .544.46.986 1.027.986h1.147l1.18 12.631c.085.91.597 1.898 1.48 2.57C3.242 19.123 4.696 22 7.284 22c2.15 0 3.664-2.057 2.928-4.006h5.619C15.095 19.94 16.607 22 18.758 22c1.716 0 3.113-1.34 3.113-2.989 0-1.648-1.397-2.988-3.113-2.988H7.292a1.91 1.91 0 01-1.753-1.11l16.408-.926c.448-.025.827-.327.936-.745l2.086-8.012c.162-.62-.328-1.224-.996-1.224z" fill="url(#paint0_linear)"/><defs><linearGradient id="paint0_linear" x1="11.745" y1="0" x2="24.273" y2="14.492" gradientUnits="userSpaceOnUse"><stop stop-color="#14E753"/><stop offset="1" stop-color="#0AB73E"/><stop offset="1" stop-color="#0AB73E"/></linearGradient></defs></svg>