<svg width="20" height="18" fill="none" xmlns="http://www.w3.org/2000/svg"><path d="M9.162 17.644a1.17 1.17 0 001.68 0l7.484-7.65c2.232-2.283 2.232-5.997 0-8.28A5.626 5.626 0 0014.276 0c-1.529 0-2.966.61-4.048 1.715l-.226.231-.227-.232a5.643 5.643 0 00-8.097 0c-2.237 2.288-2.238 5.991 0 8.28l7.484 7.65zM5.727 2.43a3.29 3.29 0 012.368 1.003l1.067 1.091a1.17 1.17 0 001.68 0l1.067-1.09a3.29 3.29 0 012.368-1.003c2.961 0 4.48 3.687 2.368 5.845l-6.643 6.792L3.36 8.275c-2.09-2.136-.629-5.846 2.368-5.846z" fill="#262626"/></svg>