<svg width="516" height="171" viewBox="0 0 516 171" fill="none" xmlns="http://www.w3.org/2000/svg">
<path fill-rule="evenodd" clip-rule="evenodd" d="M442.377 158.656H78.2988V170.251H442.281L442.377 165.925V158.656Z" fill="white"/>
<path fill-rule="evenodd" clip-rule="evenodd" d="M76.9915 14.1061C111.886 14.1061 141.353 37.6474 150.804 69.9207C138.447 41.1596 107.091 25.8775 76.9915 25.8775C40.8815 25.8775 11.6084 55.5614 11.6084 92.1785C11.6084 128.796 40.8815 158.48 76.9915 158.48C78.0338 158.48 79.0693 158.453 80.0994 158.404L80.5006 158.488H117.642C105.845 165.942 91.9159 170.251 76.9915 170.251C34.4701 170.251 0 135.297 0 92.1785C0 49.0603 34.4701 14.1061 76.9915 14.1061Z" fill="white"/>
<path fill-rule="evenodd" clip-rule="evenodd" d="M511.452 51.3546C509.78 56.9379 506.804 61.9069 502.47 65.9495C493.172 74.6234 479.781 77.1757 467.548 75.6942L466.226 75.5341L466.214 76.8848C466.196 79.0308 466.707 81.1741 468.365 82.6323C473.082 86.7797 484.224 82.2368 489.128 80.1718C492.539 78.7359 495.879 77.14 499.212 75.525C499.763 75.2581 500.315 74.9896 500.867 74.7227L500.352 75.3112C498.202 77.827 495.557 80.2172 493.048 82.3618C490.663 84.3997 488.16 86.3945 485.589 88.1849C476.701 94.3721 466.666 95.7626 456.201 97.0522L451.993 97.571L455.851 99.3528C459.091 100.85 464.687 100.284 468.211 99.8708C471.261 99.5137 473.709 98.6628 476.597 97.766C476.758 97.7164 476.918 97.6667 477.08 97.6191C474.658 101.544 469.398 105.964 466.211 107.884C464.921 108.661 463.357 109.367 461.991 109.999C459.619 111.098 457.201 112.126 454.757 113.048C452.213 114.009 449.408 114.972 446.732 115.444C446.04 115.567 443.397 115.949 442.88 115.265C442.644 114.952 442.918 114.097 443.031 113.79C449.56 96.0337 457.869 79.46 468.076 63.5908C469.328 61.6433 470.55 59.6572 471.902 57.7796C473.294 55.8468 474.516 53.7755 476.037 51.9411C476.795 51.0266 477.393 50.0277 478.085 49.0686L492.372 30.9995C480.487 34.1447 477.577 38.9163 469.378 47.8579C466.747 50.7268 464.603 53.588 462.301 56.7122L460.67 58.9232L460.737 57.4091C460.798 56.0075 460.6 54.4849 460.457 53.0883C460.272 51.2742 460.118 49.4769 460.121 47.651C460.128 42.7589 461.241 38.3549 463.697 34.1201C465.751 30.578 468.475 27.8593 471.902 25.6889C476.326 22.8864 481.488 21.2337 486.418 19.5993C491.756 17.8294 497.089 16.0188 501.876 12.9654C503.026 12.232 504.278 11.0954 505.308 10.1894C506.968 8.73041 508.596 7.22619 510.202 5.70633C511.926 4.07549 513.637 2.41791 515.295 0.717923C515.492 0.515803 515.736 0.26989 516 0C515.949 1.45963 515.844 2.92282 515.721 4.3767C515.399 8.21877 514.944 12.0642 514.432 15.8839C513.95 19.4903 513.411 23.0982 512.781 26.6823C512.356 29.0897 511.902 31.737 511.208 34.0783C506.118 51.2722 493.809 59.0443 477.088 62.2299L473.877 62.8414L476.722 64.4702C478.621 65.5587 480.656 66.2921 482.822 66.5778C488.072 67.2728 493.14 65.2294 497.564 62.5394C502.485 59.5476 507.177 55.4713 511.452 51.3546ZM459.727 60.2047L457.838 62.7659L457.815 62.8029C454.604 67.8831 451.311 72.9296 448.196 78.0711C444.081 84.8646 440.417 91.873 436.828 98.9634C434.788 102.993 432.94 107.071 431.069 111.179C430.663 111.518 429.969 112.051 429.577 112.029C429.072 111.999 428.293 110.939 428.035 110.578L428.007 110.539L427.976 110.502C426.461 108.703 425.283 106.682 424.443 104.476C422.873 100.357 422.566 95.8575 422.932 91.4899C423.333 86.6824 424.544 81.8753 426.096 77.3251C428.448 70.4282 431.717 63.7055 435.343 57.4077C435.387 57.3322 435.43 57.2567 435.475 57.182C435.067 58.9533 434.687 60.7318 434.376 62.5233C433.192 69.3372 432.318 79.9802 441.216 81.5999L443.678 82.048L442.472 79.8264C438.307 72.1571 439.763 61.1804 442.414 53.2434C444.589 46.7296 448.35 39.7119 453.464 35.0924C455.54 33.2183 457.805 31.4448 460.086 29.8377C460.7 29.4057 461.331 28.9737 461.974 28.5529C461.154 29.7224 460.397 30.8911 459.721 32.1684C458.654 34.1845 457.822 36.3313 457.106 38.4984C455.046 44.7373 455.356 52.1223 458.5 57.937L459.727 60.2047Z" fill="white"/>
<path fill-rule="evenodd" clip-rule="evenodd" d="M422.831 152.41C429.462 134.832 428.364 138.632 432.973 127.126C437.72 115.274 439.523 112.379 444.705 101.024C450.804 87.6605 458.902 72.8693 466.569 60.5443C473.002 50.206 475.093 48.7478 481.135 40.6031C481.638 39.9243 482.064 39.5614 482.535 38.9079C478.653 41.6593 467.658 54.5708 464.398 59.0407C462.61 61.4909 460.846 63.6851 459.084 66.278C445.794 85.8194 433.883 109.071 426.197 132.616C424.411 138.085 418.974 147.54 422.831 152.41Z" fill="white"/>
<path d="M74.71 51.8642V55.516C71.3522 55.6726 69.0104 56.5241 67.6847 58.0703C66.2715 59.7727 65.4318 61.4748 65.1664 63.1552C64.9899 64.32 64.9016 65.2384 64.9016 65.8438C64.9016 66.2017 64.9016 66.6275 64.9016 67.0532C64.8127 67.5908 64.7685 68.0166 64.7685 68.2625V103.21L96.7137 67.479C96.7137 67.479 96.7137 67.4342 96.7137 67.3217C96.8026 67.2321 96.8468 67.1875 96.8468 67.1875C96.957 67.0979 97.0895 66.919 97.2665 66.6499C97.3548 66.4934 97.4871 66.359 97.6415 66.2696C97.8188 65.9782 98.2606 65.3958 98.9672 64.4995C98.9672 64.4995 99.0114 64.4549 99.0997 64.3653C99.1886 64.2752 99.2328 64.2304 99.2328 64.2304C99.2328 64.2304 99.2767 64.1856 99.3651 64.0962C99.4532 64.0067 99.4974 63.9165 99.4974 63.8495C99.8511 63.4909 100.094 63.2224 100.183 63.021C100.183 62.8413 100.271 62.6624 100.425 62.4834C100.514 62.3261 100.602 62.1472 100.691 61.9676C100.977 61.43 101.11 61.0722 101.11 60.8924C101.287 60.3324 101.375 59.974 101.375 59.7949C101.375 59.7055 101.375 59.5935 101.375 59.414C101.287 59.3244 101.243 59.1903 101.243 59.0105C101.243 59.0105 101.11 58.6975 100.823 58.0703C100.647 57.5999 100.028 57.1071 98.9672 56.5913C97.929 55.9641 96.6035 55.6278 94.9909 55.6278C94.9909 55.6278 94.9468 55.6278 94.8586 55.6278C94.7918 55.6278 94.7476 55.6278 94.7476 55.6278C94.7476 55.6278 94.7035 55.6278 94.6151 55.6278C94.4387 55.6278 94.3505 55.6278 94.3505 55.6278C94.2616 55.6278 94.1733 55.6278 94.0631 55.6278C93.8866 55.6278 93.7977 55.6278 93.7977 55.6278C93.7094 55.6278 93.6211 55.6278 93.5329 55.6278C93.3778 55.5384 93.2013 55.516 93.0248 55.516V51.8642H122.319V55.516C118.519 56.0536 115.381 57.1742 112.885 58.854C110.787 60.2877 108.71 62.1248 106.678 64.3653C106.479 64.7456 106.258 65.0595 105.993 65.3056C105.838 65.4853 105.551 65.7536 105.197 66.1347L84.387 89.4996L109.307 132.915C109.505 133.184 109.682 133.475 109.859 133.722C109.947 133.991 110.036 134.17 110.102 134.26C110.654 135.066 110.919 135.469 110.919 135.469C111.007 135.469 111.052 135.469 111.052 135.469C111.052 135.469 111.052 135.514 111.052 135.603C111.052 135.693 111.052 135.738 111.052 135.738C111.317 136.007 111.449 136.209 111.449 136.276C111.693 136.455 111.869 136.679 111.958 136.948C111.958 136.948 112.267 137.351 112.885 138.157C113.151 138.516 113.681 139.009 114.476 139.636C115.359 140.532 116.486 141.249 117.812 141.809C119.137 142.504 120.772 142.84 122.694 142.84H122.96V146.491H94.3505V142.84H96.1835C98.1275 142.84 99.3871 142.593 99.9173 142.056C100.425 141.518 100.691 140.868 100.691 140.151C100.691 139.905 100.602 139.412 100.425 138.673C100.271 138.426 100.139 138.113 100.05 137.754C99.8731 137.396 99.7407 137.082 99.6304 136.813C99.6304 136.724 99.5857 136.634 99.4974 136.544C99.4092 136.455 99.3651 136.41 99.3651 136.41C99.3651 136.321 99.3209 136.253 99.2328 136.164C99.1437 136.074 99.0997 135.962 99.0997 135.85C99.0114 135.514 98.857 135.066 98.5916 134.506C98.3048 134.17 98.0835 133.811 97.9071 133.453L76.8313 97.5646L64.7685 111.006V130.093C64.7685 130.451 64.7685 130.854 64.7685 131.302C64.7685 131.75 64.7685 132.154 64.7685 132.512C64.7685 132.692 64.9016 133.587 65.1664 135.2C65.4318 136.993 66.2715 138.65 67.6847 140.151C69.0104 141.854 71.3522 142.75 74.71 142.84V146.491H44.2012V142.84C47.8245 142.84 50.2987 141.854 51.6465 139.905C52.9495 138.023 53.745 135.873 54.0104 133.475C54.0104 133.184 54.0546 132.915 54.1648 132.647C54.1648 132.378 54.1648 132.109 54.1648 131.862C54.1648 131.571 54.1648 131.258 54.1648 130.899C54.1648 130.653 54.1648 130.361 54.1648 130.093V68.3974C54.1648 68.1284 54.1648 67.8822 54.1648 67.6131C54.1648 67.3217 54.1648 67.0532 54.1648 66.7841C54.1648 66.5379 54.1648 66.2241 54.1648 65.8438C54.0546 65.5747 54.0104 65.3056 54.0104 65.0595C53.745 62.7967 52.9942 60.6463 51.7788 58.5849C50.2545 56.5241 47.7362 55.516 44.2012 55.516V51.8642H74.71Z" fill="white"/>
<path d="M168.668 134.685V111.006C163.299 113.291 157.556 116.338 151.436 120.146C146.134 123.506 143.483 127.852 143.483 133.162C143.638 135.469 144.521 137.351 146.134 138.852C147.614 140.263 149.846 140.98 152.762 140.98C154.065 140.98 156.407 140.353 159.787 139.098C162.084 138.381 165.045 136.903 168.668 134.685ZM147.46 96.4894C147.46 98.8863 146.929 100.499 145.869 101.328C144.61 102.224 143.13 102.673 141.472 102.673C139.506 102.113 138.269 101.44 137.783 100.656C136.811 99.3346 136.325 98.1698 136.325 97.1612C136.325 92.5915 138.18 89.0968 141.892 86.6775C146.598 83.5408 152.121 81.973 158.461 81.973C160.494 81.973 161.731 82.0176 162.151 82.1072C163.697 82.1072 165.509 82.4211 167.585 83.048C170.501 83.9667 172.998 85.378 175.031 87.3492C177.947 90.3061 179.405 93.891 179.405 98.0796V135.335C179.405 137.956 179.847 139.972 180.73 141.383C181.68 142.907 183.536 143.668 186.298 143.668L186.165 146.491H169.353L169.176 140.151C164.029 143.153 159.61 145.169 155.942 146.222C154.463 146.76 152.629 147.118 150.464 147.365C148.321 147.589 146.951 147.701 146.399 147.701C142.599 147.701 139.462 146.849 136.966 145.147C133.851 142.951 132.04 139.949 131.531 136.141C131.443 135.424 131.398 134.17 131.398 132.378C131.398 127.068 133.784 122.677 138.556 119.228C141.561 117.077 146.598 114.523 153.69 111.543C154.441 111.23 156.981 110.401 161.333 109.057C165.685 107.713 168.182 106.974 168.801 106.862V104.039C168.801 96.6012 168.579 92.2776 168.16 91.1128C166.481 88.0658 163.388 86.5425 158.859 86.5425C156.495 86.5425 154.153 87.1255 151.834 88.2901C150.022 89.1863 148.829 90.2168 148.277 91.3813C147.724 92.5467 147.46 94.2489 147.46 96.4894Z" fill="white"/>
<path d="M209.648 86.9459L209.78 84.1241H255.909V86.9459H254.583C254.495 86.9459 253.677 87.1704 252.131 87.6625C250.585 88.1329 249.679 88.6265 249.413 89.0969C248.441 90.6425 247.955 92.681 247.955 95.28V135.469C247.955 137.821 248.397 139.703 249.281 141.115C250.01 142.347 251.335 143.131 253.257 143.399C254.119 143.579 254.959 143.668 255.776 143.668V146.491H229.398V143.668H230.592C233.11 143.668 234.832 142.996 235.76 141.675C236.821 140.308 237.351 138.247 237.351 135.469V96.6013C237.351 94.1148 236.998 92.1882 236.291 90.8439C235.363 89.5897 233.905 88.962 231.916 88.962H227.145C225.642 88.962 224.582 89.2758 223.942 89.903C223.08 90.8215 222.55 91.5612 222.373 92.1882C222.218 92.9949 222.064 93.7786 221.932 94.5181C221.798 95.28 221.666 95.884 221.6 96.3546C221.489 97.2731 221.356 98.3713 221.202 99.6926C221.047 101.014 220.959 101.776 220.915 102.001C220.561 103.837 220.384 105.742 220.384 107.758C220.208 109.124 220.075 110.558 219.965 112.036C219.832 113.537 219.766 114.456 219.721 114.747C219.545 115.934 219.368 117.099 219.192 118.264C219.015 119.429 218.882 120.594 218.816 121.737C218.529 123.462 218.175 125.523 217.733 127.942C217.402 129.824 216.916 131.974 216.275 134.372C215.215 138.337 213.757 141.562 211.901 144.049C210.045 146.491 207.218 147.701 203.439 147.701C200.789 147.208 199.287 146.827 198.911 146.625C197.033 146.155 195.619 145.169 194.669 143.668C192.969 141.204 192.129 138.964 192.129 136.948C192.129 134.17 192.571 131.952 193.455 130.339C193.984 129.376 194.802 128.614 195.907 128.009C197.011 127.427 198.115 127.136 199.198 127.136C199.993 127.136 201.054 127.673 202.357 128.748C203.418 129.846 203.948 130.899 203.948 131.862C204.037 132.288 204.081 133.05 204.081 134.125C204.081 134.864 203.683 135.716 202.887 136.679C202.843 136.813 202.689 136.97 202.445 137.149C202.203 137.351 201.982 137.553 201.805 137.754C201.783 137.821 201.584 138.068 201.275 138.516C200.943 138.964 200.679 139.367 200.501 139.725C200.325 140.106 200.237 140.51 200.237 140.98C200.237 141.473 200.723 142.056 201.695 142.728C202.048 142.996 202.711 143.153 203.683 143.153C204.037 143.153 204.611 143.041 205.406 142.84C205.936 142.75 206.665 142.369 207.549 141.675C208.322 140.868 208.941 139.95 209.383 138.986C210.178 137.53 210.841 135.872 211.371 133.991C211.636 133.005 211.923 131.705 212.166 130.093C212.233 129.689 212.564 127.987 213.138 125.007C213.735 122.005 214.066 120.168 214.155 119.474C214.331 118.22 214.619 116.338 214.95 113.851C215.392 110.513 215.79 107.198 216.143 103.904C216.496 100.029 216.673 97.3856 216.673 95.952C216.673 94.3608 216.54 93.1514 216.275 92.3223C216.032 91.2473 215.348 90.038 214.287 88.7161C213.271 87.5283 211.724 86.9459 209.648 86.9459Z" fill="white"/>
<path d="M363.122 129.555L377.946 84.1241H399.441V86.9459C397.188 86.9459 395.597 87.1704 394.691 87.6401C393.808 87.887 393.056 88.5139 392.416 89.4996C391.797 90.3734 391.488 91.7177 391.488 93.5325V137.217C391.488 139.031 391.842 140.375 392.549 141.249C394.161 142.862 396.503 143.668 399.573 143.668V146.491H373.196V143.668C376.399 143.556 378.652 142.75 379.956 141.249C380.84 140.353 381.282 138.986 381.282 137.194V88.0211L362.194 146.491H358.483L337.539 88.6937V136.544C337.539 137.239 337.671 138.023 337.937 138.852C338.467 140.353 339.263 141.518 340.323 142.324C341.427 143.31 343.062 143.803 345.249 143.803V146.491H325.345V143.803C327.752 143.803 329.652 142.728 331.044 140.577C331.928 139.143 332.369 137.127 332.369 134.506V95.7051C332.369 92.8375 331.884 90.6873 330.912 89.2313C329.829 87.708 327.973 86.9459 325.345 86.9459V84.1241H346.685L363.122 129.555Z" fill="white"/>
<path d="M290.218 141.652C293.687 141.652 296.823 139.905 299.63 136.41C302.634 133.005 304.269 127.225 304.534 119.071H276.167C276.521 126.15 278.112 131.705 280.939 135.716C282.442 137.844 283.877 139.367 285.247 140.285C286.617 141.204 288.274 141.652 290.218 141.652ZM304.401 108.855C304.335 106.615 303.716 104.106 302.524 101.306C301.353 98.5279 299.784 96.0636 297.795 93.9134C294.415 90.2615 289.865 88.4244 284.143 88.4244C280.962 88.4244 277.824 89.1863 274.709 90.6872C272.964 91.6952 270.755 93.3526 268.082 95.6825L266.116 92.8598C268.811 90.1944 270.888 88.2677 272.368 87.0807C273.848 85.9156 275.439 84.9971 277.118 84.3923C280.63 82.7797 284.607 81.973 289.025 81.973C296.823 82.1072 303.517 85.7366 309.062 92.8598C313.989 99.222 316.464 106.705 316.464 115.307C316.464 124.223 313.857 131.661 308.643 137.62C306.213 140.487 303.363 142.683 300.049 144.206C296.757 145.729 293.399 146.491 289.953 146.491C286.286 146.491 282.685 145.662 279.15 143.982C275.615 142.302 272.81 139.905 270.733 136.813C266.403 130.182 264.194 122.655 264.105 114.231H304.512C304.711 114.231 304.821 113.829 304.821 113.022C304.821 111.095 304.666 109.706 304.401 108.855Z" fill="white"/>
<path d="M74.71 51.8642V55.516C71.3522 55.6726 69.0104 56.5241 67.6847 58.0703C66.2715 59.7727 65.4318 61.4748 65.1664 63.1552C64.9899 64.32 64.9016 65.2384 64.9016 65.8438C64.9016 66.2017 64.9016 66.6275 64.9016 67.0532C64.8127 67.5908 64.7685 68.0166 64.7685 68.2625V103.21L96.7137 67.479C96.7137 67.479 96.7137 67.4342 96.7137 67.3217C96.8026 67.2321 96.8468 67.1875 96.8468 67.1875C96.957 67.0979 97.0895 66.919 97.2665 66.6499C97.3548 66.4933 97.4871 66.359 97.6415 66.2696C97.8188 65.9782 98.2606 65.3958 98.9672 64.4995C98.9672 64.4995 99.0114 64.4549 99.0997 64.3653C99.1886 64.2752 99.2328 64.2304 99.2328 64.2304C99.2328 64.2304 99.2767 64.1856 99.3651 64.0962C99.4532 64.0067 99.4974 63.9165 99.4974 63.8495C99.8511 63.4909 100.094 63.2224 100.183 63.021C100.183 62.8413 100.271 62.6624 100.425 62.4834C100.514 62.3261 100.602 62.1472 100.691 61.9676C100.977 61.43 101.11 61.0722 101.11 60.8924C101.287 60.3324 101.375 59.974 101.375 59.7949C101.375 59.7055 101.375 59.5935 101.375 59.414C101.287 59.3244 101.243 59.1903 101.243 59.0105C101.243 59.0105 101.11 58.6975 100.823 58.0703C100.647 57.5999 100.028 57.1071 98.9672 56.5913C97.929 55.9641 96.6035 55.6278 94.9909 55.6278C94.9909 55.6278 94.9468 55.6278 94.8586 55.6278C94.7918 55.6278 94.7476 55.6278 94.7476 55.6278C94.7476 55.6278 94.7035 55.6278 94.6151 55.6278C94.4387 55.6278 94.3505 55.6278 94.3505 55.6278C94.2616 55.6278 94.1733 55.6278 94.0631 55.6278C93.8866 55.6278 93.7977 55.6278 93.7977 55.6278C93.7094 55.6278 93.6211 55.6278 93.5329 55.6278C93.3778 55.5384 93.2013 55.516 93.0249 55.516V51.8642H122.319V55.516C118.519 56.0536 115.381 57.1742 112.885 58.854C110.787 60.2877 108.71 62.1248 106.678 64.3653C106.479 64.7456 106.258 65.0595 105.993 65.3056C105.838 65.4853 105.551 65.7536 105.197 66.1347L84.387 89.4996L109.307 132.915C109.505 133.184 109.682 133.475 109.859 133.722C109.947 133.991 110.036 134.17 110.102 134.26C110.654 135.066 110.919 135.469 110.919 135.469C111.007 135.469 111.052 135.469 111.052 135.469C111.052 135.469 111.052 135.514 111.052 135.603C111.052 135.693 111.052 135.738 111.052 135.738C111.317 136.007 111.449 136.209 111.449 136.276C111.693 136.455 111.869 136.679 111.958 136.948C111.958 136.948 112.267 137.351 112.885 138.157C113.151 138.516 113.681 139.009 114.476 139.636C115.359 140.532 116.486 141.249 117.812 141.809C119.137 142.504 120.772 142.84 122.694 142.84H122.96V146.491H94.3505V142.84H96.1835C98.1275 142.84 99.3871 142.593 99.9173 142.056C100.425 141.518 100.691 140.868 100.691 140.151C100.691 139.905 100.602 139.412 100.425 138.673C100.271 138.426 100.139 138.113 100.05 137.754C99.8732 137.396 99.7407 137.082 99.6304 136.813C99.6304 136.724 99.5857 136.634 99.4974 136.544C99.4092 136.455 99.3651 136.41 99.3651 136.41C99.3651 136.321 99.3209 136.253 99.2328 136.164C99.1437 136.074 99.0997 135.962 99.0997 135.85C99.0114 135.514 98.857 135.066 98.5916 134.506C98.3048 134.17 98.0835 133.811 97.9071 133.453L76.8313 97.5646L64.7685 111.006V130.093C64.7685 130.451 64.7685 130.854 64.7685 131.302C64.7685 131.75 64.7685 132.154 64.7685 132.512C64.7685 132.692 64.9016 133.587 65.1664 135.2C65.4318 136.993 66.2715 138.65 67.6847 140.151C69.0104 141.854 71.3522 142.75 74.71 142.84V146.491H44.2012V142.84C47.8245 142.84 50.2987 141.854 51.6465 139.905C52.9495 138.023 53.745 135.873 54.0104 133.475C54.0104 133.184 54.0546 132.915 54.1648 132.647C54.1648 132.378 54.1648 132.109 54.1648 131.862C54.1648 131.571 54.1648 131.258 54.1648 130.899C54.1648 130.653 54.1648 130.361 54.1648 130.093V68.3975C54.1648 68.1284 54.1648 67.8822 54.1648 67.6131C54.1648 67.3217 54.1648 67.0532 54.1648 66.7841C54.1648 66.5379 54.1648 66.2241 54.1648 65.8438C54.0546 65.5747 54.0104 65.3056 54.0104 65.0595C53.745 62.7967 52.9942 60.6463 51.7788 58.5849C50.2545 56.5241 47.7362 55.516 44.2012 55.516V51.8642H74.71V51.8642Z" stroke="white" stroke-width="0.0762" stroke-miterlimit="22.9256"/>
<path d="M168.668 134.685V111.006C163.299 113.291 157.556 116.338 151.436 120.146C146.134 123.506 143.483 127.852 143.483 133.162C143.638 135.469 144.521 137.351 146.134 138.852C147.614 140.263 149.846 140.98 152.762 140.98C154.065 140.98 156.407 140.353 159.787 139.098C162.084 138.381 165.045 136.903 168.668 134.685V134.685ZM147.46 96.4894C147.46 98.8863 146.929 100.499 145.869 101.328C144.61 102.224 143.13 102.673 141.472 102.673C139.506 102.113 138.269 101.44 137.783 100.656C136.811 99.3346 136.325 98.1698 136.325 97.1612C136.325 92.5915 138.18 89.0968 141.892 86.6775C146.598 83.5408 152.121 81.973 158.461 81.973C160.494 81.973 161.731 82.0176 162.151 82.1072C163.697 82.1072 165.509 82.4211 167.585 83.048C170.501 83.9667 172.998 85.378 175.031 87.3492C177.947 90.3061 179.405 93.891 179.405 98.0796V135.335C179.405 137.956 179.847 139.972 180.73 141.383C181.68 142.907 183.536 143.668 186.298 143.668L186.165 146.491H169.353L169.176 140.151C164.029 143.153 159.61 145.169 155.942 146.222C154.463 146.76 152.629 147.118 150.464 147.365C148.321 147.589 146.951 147.701 146.399 147.701C142.599 147.701 139.462 146.849 136.966 145.147C133.851 142.951 132.04 139.949 131.531 136.141C131.443 135.424 131.398 134.17 131.398 132.378C131.398 127.068 133.784 122.677 138.556 119.228C141.561 117.077 146.598 114.523 153.69 111.543C154.441 111.23 156.981 110.401 161.333 109.057C165.685 107.713 168.182 106.974 168.801 106.862V104.039C168.801 96.6012 168.579 92.2776 168.16 91.1128C166.481 88.0658 163.388 86.5425 158.859 86.5425C156.495 86.5425 154.153 87.1255 151.834 88.2901C150.022 89.1863 148.829 90.2168 148.277 91.3813C147.724 92.5467 147.46 94.2489 147.46 96.4894V96.4894Z" stroke="white" stroke-width="0.0762" stroke-miterlimit="22.9256"/>
<path d="M209.648 86.9459L209.78 84.1241H255.909V86.9459H254.583C254.495 86.9459 253.677 87.1704 252.131 87.6625C250.585 88.1329 249.679 88.6265 249.413 89.0969C248.441 90.6425 247.955 92.681 247.955 95.28V135.469C247.955 137.821 248.397 139.703 249.281 141.115C250.01 142.347 251.335 143.131 253.257 143.399C254.119 143.579 254.959 143.668 255.776 143.668V146.491H229.398V143.668H230.592C233.11 143.668 234.832 142.996 235.76 141.675C236.821 140.308 237.351 138.247 237.351 135.469V96.6013C237.351 94.1148 236.998 92.1882 236.291 90.8439C235.363 89.5897 233.905 88.962 231.916 88.962H227.145C225.642 88.962 224.582 89.2758 223.942 89.903C223.08 90.8215 222.55 91.5612 222.373 92.1882C222.218 92.9949 222.064 93.7786 221.932 94.5181C221.798 95.28 221.666 95.884 221.6 96.3546C221.489 97.2731 221.356 98.3713 221.202 99.6926C221.047 101.014 220.959 101.776 220.915 102.001C220.561 103.837 220.384 105.742 220.384 107.758C220.208 109.124 220.075 110.558 219.965 112.036C219.832 113.537 219.766 114.456 219.721 114.747C219.545 115.934 219.368 117.099 219.192 118.264C219.015 119.429 218.882 120.594 218.816 121.737C218.529 123.462 218.175 125.523 217.733 127.942C217.402 129.824 216.916 131.974 216.275 134.372C215.215 138.337 213.757 141.562 211.901 144.049C210.045 146.491 207.218 147.701 203.439 147.701C200.789 147.208 199.287 146.827 198.911 146.625C197.033 146.155 195.619 145.169 194.669 143.668C192.969 141.204 192.129 138.964 192.129 136.948C192.129 134.17 192.571 131.952 193.455 130.339C193.984 129.376 194.802 128.614 195.907 128.009C197.011 127.427 198.115 127.136 199.198 127.136C199.993 127.136 201.054 127.673 202.357 128.748C203.418 129.846 203.948 130.899 203.948 131.862C204.037 132.288 204.081 133.05 204.081 134.125C204.081 134.864 203.683 135.716 202.887 136.679C202.843 136.813 202.689 136.97 202.445 137.149C202.203 137.351 201.982 137.553 201.805 137.754C201.783 137.821 201.584 138.068 201.275 138.516C200.943 138.964 200.679 139.367 200.501 139.725C200.325 140.106 200.237 140.51 200.237 140.98C200.237 141.473 200.723 142.056 201.695 142.728C202.048 142.996 202.711 143.153 203.683 143.153C204.037 143.153 204.611 143.041 205.406 142.84C205.936 142.75 206.665 142.369 207.549 141.675C208.322 140.868 208.941 139.95 209.383 138.986C210.178 137.53 210.841 135.872 211.371 133.991C211.636 133.005 211.923 131.705 212.166 130.093C212.233 129.689 212.564 127.987 213.138 125.007C213.735 122.005 214.066 120.168 214.155 119.474C214.331 118.22 214.619 116.338 214.95 113.851C215.392 110.513 215.79 107.198 216.143 103.904C216.496 100.029 216.673 97.3856 216.673 95.952C216.673 94.3608 216.54 93.1514 216.275 92.3223C216.032 91.2473 215.348 90.038 214.287 88.7161C213.271 87.5283 211.724 86.9459 209.648 86.9459V86.9459Z" stroke="white" stroke-width="0.0762" stroke-miterlimit="22.9256"/>
<path d="M363.122 129.555L377.946 84.1241H399.441V86.9459C397.188 86.9459 395.597 87.1704 394.691 87.6401C393.808 87.887 393.056 88.5139 392.416 89.4996C391.797 90.3734 391.488 91.7177 391.488 93.5325V137.217C391.488 139.031 391.842 140.375 392.549 141.249C394.161 142.862 396.503 143.668 399.573 143.668V146.491H373.196V143.668C376.399 143.556 378.652 142.75 379.956 141.249C380.84 140.353 381.282 138.986 381.282 137.194V88.0211L362.194 146.491H358.483L337.539 88.6937V136.544C337.539 137.239 337.671 138.023 337.937 138.852C338.467 140.353 339.263 141.518 340.323 142.324C341.427 143.31 343.062 143.803 345.249 143.803V146.491H325.345V143.803C327.752 143.803 329.652 142.728 331.044 140.577C331.928 139.143 332.369 137.127 332.369 134.506V95.7051C332.369 92.8375 331.884 90.6873 330.912 89.2313C329.829 87.708 327.973 86.9459 325.345 86.9459V84.1241H346.685L363.122 129.555V129.555Z" stroke="white" stroke-width="0.0762" stroke-miterlimit="22.9256"/>
<path d="M290.218 141.652C293.687 141.652 296.823 139.905 299.63 136.41C302.634 133.005 304.269 127.225 304.534 119.071H276.167C276.521 126.15 278.112 131.705 280.939 135.716C282.442 137.844 283.877 139.367 285.247 140.285C286.617 141.204 288.274 141.652 290.218 141.652V141.652ZM304.401 108.855C304.335 106.615 303.716 104.106 302.524 101.306C301.353 98.5279 299.784 96.0636 297.795 93.9134C294.415 90.2615 289.865 88.4244 284.143 88.4244C280.962 88.4244 277.824 89.1863 274.709 90.6872C272.964 91.6952 270.755 93.3526 268.082 95.6825L266.116 92.8598C268.811 90.1944 270.888 88.2677 272.368 87.0807C273.848 85.9156 275.439 84.9971 277.118 84.3923C280.63 82.7797 284.607 81.973 289.025 81.973C296.823 82.1072 303.517 85.7366 309.063 92.8598C313.989 99.222 316.464 106.705 316.464 115.307C316.464 124.223 313.857 131.661 308.643 137.62C306.213 140.487 303.363 142.683 300.049 144.206C296.757 145.729 293.399 146.491 289.953 146.491C286.286 146.491 282.685 145.662 279.15 143.982C275.615 142.302 272.81 139.905 270.733 136.813C266.403 130.182 264.194 122.655 264.105 114.231H304.512C304.711 114.231 304.821 113.829 304.821 113.022C304.821 111.095 304.666 109.706 304.401 108.855V108.855Z" stroke="white" stroke-width="0.0762" stroke-miterlimit="22.9256"/>
<path fill-rule="evenodd" clip-rule="evenodd" d="M422.426 133.03C417.951 130.865 420.552 127.678 422.305 127.377H442.441C444.134 128.279 445.899 131.37 441.594 132.91V139.256C441.594 139.485 441.744 139.684 441.962 139.742C445.02 140.563 450.703 142.185 451.632 142.831C452.78 143.593 455.139 145.922 455.381 149.145C455.744 152.031 456.493 158.032 456.59 158.947C456.832 161.352 457.207 166.439 456.771 167.545C456.227 168.928 454.958 169.831 452.962 170.251H410.756C409.526 170.091 407.067 168.965 407.067 165.742C407.389 160.971 408.155 150.997 408.639 149.265C409.244 147.1 409.183 144.154 414.565 142.049C416.943 141.328 422.245 139.704 422.426 139.644C422.492 139.622 422.485 139.562 422.485 139.491L422.426 133.03Z" fill="white"/>
<path fill-rule="evenodd" clip-rule="evenodd" d="M417.155 166.623H439.047C440.237 166.623 441.382 166.268 442.376 165.657L440.507 164.576C439.853 164.85 439.148 165.002 438.424 165.002H418.031C415.169 165.002 413.057 162.628 413.338 159.727L414.322 149.528L414.331 149.443L412.838 148.58C412.832 148.63 412.826 148.681 412.821 148.732L411.713 160.523C411.397 163.878 413.846 166.623 417.155 166.623Z" fill="#F5F5F5"/>
<path d="M210.867 52.5H212.477V64H210.499V55.927L204.128 64H202.518V52.5H204.496V60.573L210.867 52.5ZM223.481 52.5H225.482V64H223.481V59.193H217.524V64H215.523V52.5H217.524V57.284H223.481V52.5ZM237.084 52.5V54.432H233.174V64H231.173V54.432H227.24V52.5H237.084ZM239.791 59.17C239.99 60.1973 240.458 60.9947 241.194 61.562C241.945 62.1293 242.865 62.413 243.954 62.413C245.472 62.413 246.576 61.8533 247.266 60.734L248.968 61.7C247.849 63.4327 246.162 64.299 243.908 64.299C242.083 64.299 240.596 63.7317 239.446 62.597C238.311 61.447 237.744 59.998 237.744 58.25C237.744 56.5173 238.304 55.076 239.423 53.926C240.542 52.776 241.991 52.201 243.77 52.201C245.457 52.201 246.829 52.799 247.887 53.995C248.96 55.1757 249.497 56.6017 249.497 58.273C249.497 58.5643 249.474 58.8633 249.428 59.17H239.791ZM243.77 54.087C242.697 54.087 241.807 54.3937 241.102 55.007C240.397 55.605 239.96 56.41 239.791 57.422H247.473C247.304 56.3333 246.875 55.5053 246.185 54.938C245.495 54.3707 244.69 54.087 243.77 54.087ZM258.145 52.201C259.755 52.201 261.128 52.7913 262.262 53.972C263.397 55.1373 263.964 56.5633 263.964 58.25C263.964 59.9367 263.397 61.3703 262.262 62.551C261.128 63.7163 259.755 64.299 258.145 64.299C256.244 64.299 254.795 63.54 253.798 62.022V68.6H251.797V52.5H253.798V54.478C254.795 52.96 256.244 52.201 258.145 52.201ZM257.892 62.367C259.042 62.367 260.008 61.976 260.79 61.194C261.572 60.3967 261.963 59.4153 261.963 58.25C261.963 57.0847 261.572 56.111 260.79 55.329C260.008 54.5317 259.042 54.133 257.892 54.133C256.727 54.133 255.753 54.5317 254.971 55.329C254.189 56.111 253.798 57.0847 253.798 58.25C253.798 59.4153 254.189 60.3967 254.971 61.194C255.753 61.976 256.727 62.367 257.892 62.367ZM274.31 52.5H276.311V64H274.31V59.193H268.353V64H266.352V52.5H268.353V57.284H274.31V52.5ZM280.76 59.17C280.959 60.1973 281.427 60.9947 282.163 61.562C282.914 62.1293 283.834 62.413 284.923 62.413C286.441 62.413 287.545 61.8533 288.235 60.734L289.937 61.7C288.818 63.4327 287.131 64.299 284.877 64.299C283.052 64.299 281.565 63.7317 280.415 62.597C279.28 61.447 278.713 59.998 278.713 58.25C278.713 56.5173 279.273 55.076 280.392 53.926C281.511 52.776 282.96 52.201 284.739 52.201C286.426 52.201 287.798 52.799 288.856 53.995C289.929 55.1757 290.466 56.6017 290.466 58.273C290.466 58.5643 290.443 58.8633 290.397 59.17H280.76ZM284.739 54.087C283.666 54.087 282.776 54.3937 282.071 55.007C281.366 55.605 280.929 56.41 280.76 57.422H288.442C288.273 56.3333 287.844 55.5053 287.154 54.938C286.464 54.3707 285.659 54.087 284.739 54.087ZM300.873 52.5V54.432H296.963V64H294.962V54.432H291.029V52.5H300.873ZM302.115 57.905V55.973H310.51V57.905H302.115ZM325.245 52.5V64H323.29V55.651L319.633 61.539H319.38L315.723 55.651V64H313.745V52.5H315.884L319.495 58.319L323.106 52.5H325.245ZM337.821 52.5H339.822V64H337.821V62.022C336.825 63.54 335.376 64.299 333.474 64.299C331.864 64.299 330.492 63.7163 329.357 62.551C328.223 61.3703 327.655 59.9367 327.655 58.25C327.655 56.5633 328.223 55.1373 329.357 53.972C330.492 52.7913 331.864 52.201 333.474 52.201C335.376 52.201 336.825 52.96 337.821 54.478V52.5ZM333.727 62.367C334.893 62.367 335.866 61.976 336.648 61.194C337.43 60.3967 337.821 59.4153 337.821 58.25C337.821 57.0847 337.43 56.111 336.648 55.329C335.866 54.5317 334.893 54.133 333.727 54.133C332.577 54.133 331.611 54.5317 330.829 55.329C330.047 56.111 329.656 57.0847 329.656 58.25C329.656 59.4153 330.047 60.3967 330.829 61.194C331.611 61.976 332.577 62.367 333.727 62.367ZM350.398 52.5V54.432H344.855V64H342.854V52.5H350.398ZM361.226 52.5H363.227V64H361.226V62.022C360.229 63.54 358.78 64.299 356.879 64.299C355.269 64.299 353.896 63.7163 352.762 62.551C351.627 61.3703 351.06 59.9367 351.06 58.25C351.06 56.5633 351.627 55.1373 352.762 53.972C353.896 52.7913 355.269 52.201 356.879 52.201C358.78 52.201 360.229 52.96 361.226 54.478V52.5ZM357.132 62.367C358.297 62.367 359.271 61.976 360.053 61.194C360.835 60.3967 361.226 59.4153 361.226 58.25C361.226 57.0847 360.835 56.111 360.053 55.329C359.271 54.5317 358.297 54.133 357.132 54.133C355.982 54.133 355.016 54.5317 354.234 55.329C353.452 56.111 353.061 57.0847 353.061 58.25C353.061 59.4153 353.452 60.3967 354.234 61.194C355.016 61.976 355.982 62.367 357.132 62.367ZM372.468 58.112C373.741 58.6333 374.377 59.5457 374.377 60.849C374.377 61.815 373.994 62.6353 373.227 63.31C372.461 63.9693 371.372 64.299 369.961 64.299C367.661 64.299 366.12 63.379 365.338 61.539L367.017 60.55C367.462 61.8073 368.451 62.436 369.984 62.436C370.751 62.436 371.341 62.275 371.755 61.953C372.185 61.6157 372.399 61.1863 372.399 60.665C372.399 60.205 372.223 59.8293 371.87 59.538C371.533 59.2467 371.073 59.101 370.49 59.101H368.811V57.284H370.053C370.636 57.284 371.088 57.146 371.41 56.87C371.732 56.5787 371.893 56.1877 371.893 55.697C371.893 55.2063 371.702 54.8077 371.318 54.501C370.95 54.1943 370.437 54.041 369.777 54.041C368.489 54.041 367.615 54.5853 367.155 55.674L365.522 54.731C366.335 53.0443 367.753 52.201 369.777 52.201C371.035 52.201 372.024 52.523 372.744 53.167C373.48 53.811 373.848 54.6007 373.848 55.536C373.848 56.7013 373.388 57.56 372.468 58.112ZM384.894 52.5H386.504V64H384.526V55.927L378.155 64H376.545V52.5H378.523V60.573L384.894 52.5ZM397.508 52.5H399.509V64H397.508V59.193H391.551V64H389.55V52.5H391.551V57.284H397.508V52.5Z" fill="white"/>
</svg>
