<svg width="177" height="59" viewBox="0 0 177 59" fill="none" xmlns="http://www.w3.org/2000/svg">
<path fill-rule="evenodd" clip-rule="evenodd" d="M151.035 54.9816H26.7326V59H151.003L151.035 57.5007V54.9816Z" fill="white"/>
<path fill-rule="evenodd" clip-rule="evenodd" d="M26.2863 4.88855C38.1999 4.88855 48.2606 13.0467 51.4873 24.2309C47.2683 14.2638 36.5629 8.96786 26.2863 8.96786C13.9577 8.96786 3.96338 19.2547 3.96338 31.9442C3.96338 44.6339 13.9577 54.9208 26.2863 54.9208C26.6422 54.9208 26.9958 54.9113 27.3474 54.8943L27.4844 54.9236H40.1652C36.1376 57.5066 31.3818 59.0001 26.2863 59.0001C11.7688 59.0001 6.10352e-05 46.8868 6.10352e-05 31.9442C6.10352e-05 17.0018 11.7688 4.88855 26.2863 4.88855Z" fill="white"/>
<path fill-rule="evenodd" clip-rule="evenodd" d="M174.619 17.7968C174.048 19.7316 173.032 21.4536 171.552 22.8546C168.378 25.8605 163.806 26.745 159.629 26.2316L159.178 26.1761L159.174 26.6441C159.168 27.3878 159.342 28.1306 159.908 28.6359C161.519 30.0732 165.323 28.4989 166.997 27.7833C168.162 27.2857 169.302 26.7326 170.44 26.1729C170.628 26.0804 170.817 25.9874 171.005 25.8949L170.829 26.0988C170.095 26.9707 169.192 27.799 168.335 28.5422C167.521 29.2484 166.667 29.9397 165.789 30.5602C162.754 32.7043 159.328 33.1862 155.755 33.6331L154.319 33.8129L155.636 34.4304C156.742 34.949 158.652 34.7531 159.856 34.6099C160.897 34.4861 161.733 34.1913 162.719 33.8805C162.774 33.8633 162.828 33.8461 162.884 33.8296C162.057 35.1896 160.261 36.7214 159.173 37.3868C158.732 37.656 158.198 37.9007 157.732 38.1199C156.922 38.5005 156.097 38.8569 155.262 39.1764C154.394 39.5093 153.436 39.8431 152.522 40.0068C152.286 40.0493 151.384 40.1817 151.207 39.9446C151.127 39.8361 151.22 39.5398 151.259 39.4334C153.488 33.2801 156.325 27.5366 159.809 22.0372C160.237 21.3623 160.654 20.674 161.116 20.0233C161.591 19.3535 162.008 18.6357 162.527 18C162.786 17.6831 162.99 17.3369 163.227 17.0046L168.105 10.7428C164.047 11.8327 163.053 13.4863 160.254 16.585C159.356 17.5792 158.624 18.5707 157.838 19.6534L157.281 20.4196L157.304 19.8949C157.325 19.4092 157.257 18.8815 157.208 18.3976C157.145 17.7689 157.093 17.146 157.094 16.5133C157.096 14.818 157.476 13.2918 158.314 11.8242C159.016 10.5967 159.946 9.65455 161.116 8.9024C162.626 7.93119 164.389 7.35847 166.072 6.79208C167.894 6.17871 169.715 5.55127 171.349 4.49312C171.742 4.23897 172.169 3.84508 172.521 3.53111C173.088 3.02549 173.644 2.50421 174.192 1.97751C174.781 1.41235 175.365 0.837919 175.931 0.248794C175.998 0.17875 176.082 0.0935294 176.172 0C176.154 0.505828 176.118 1.01289 176.077 1.51673C175.967 2.84819 175.811 4.18081 175.636 5.5045C175.472 6.75431 175.288 8.0046 175.072 9.24664C174.928 10.0809 174.772 10.9984 174.536 11.8097C172.798 17.7682 168.595 20.4616 162.886 21.5655L161.79 21.7775L162.761 22.3419C163.41 22.7191 164.104 22.9733 164.844 23.0723C166.636 23.3131 168.367 22.605 169.877 21.6728C171.557 20.636 173.159 19.2234 174.619 17.7968ZM156.959 20.8637L156.314 21.7513L156.306 21.7641C155.21 23.5246 154.086 25.2735 153.022 27.0553C151.617 29.4095 150.366 31.8383 149.141 34.2954C148.445 35.6918 147.813 37.1051 147.175 38.5288C147.036 38.6461 146.799 38.8309 146.665 38.8232C146.493 38.8128 146.227 38.4455 146.139 38.3205L146.129 38.307L146.119 38.2941C145.601 37.6708 145.199 36.9702 144.912 36.2059C144.376 34.7783 144.272 33.2191 144.397 31.7055C144.534 30.0395 144.947 28.3736 145.477 26.7967C146.28 24.4066 147.396 22.0769 148.634 19.8944C148.649 19.8683 148.664 19.8421 148.679 19.8162C148.54 20.4301 148.41 21.0464 148.304 21.6672C147.9 24.0285 147.601 27.7169 150.639 28.2782L151.48 28.4334L151.068 27.6636C149.646 25.0058 150.143 21.2019 151.048 18.4513C151.791 16.194 153.075 13.762 154.821 12.1612C155.53 11.5117 156.303 10.8971 157.082 10.3402C157.291 10.1904 157.507 10.0407 157.726 9.89489C157.446 10.3002 157.188 10.7052 156.957 11.1479C156.593 11.8465 156.309 12.5905 156.064 13.3415C155.361 15.5036 155.467 18.0628 156.54 20.0779L156.959 20.8637Z" fill="white"/>
<path fill-rule="evenodd" clip-rule="evenodd" d="M144.362 52.8172C146.626 46.7257 146.251 48.0426 147.825 44.0552C149.446 39.9478 150.061 38.9447 151.83 35.0097C153.913 30.3786 156.678 25.2527 159.295 20.9815C161.491 17.3988 162.206 16.8935 164.268 14.071C164.44 13.8357 164.586 13.71 164.746 13.4835C163.421 14.437 159.667 18.9115 158.554 20.4605C157.944 21.3096 157.341 22.07 156.74 22.9685C152.202 29.7406 148.136 37.7983 145.511 45.9577C144.902 47.8531 143.045 51.1298 144.362 52.8172Z" fill="white"/>
<path d="M25.5073 17.9734V19.2389C24.3609 19.2932 23.5614 19.5883 23.1088 20.1241C22.6263 20.714 22.3396 21.3039 22.249 21.8862C22.1887 22.2899 22.1586 22.6082 22.1586 22.818C22.1586 22.942 22.1586 23.0896 22.1586 23.2371C22.1282 23.4234 22.1131 23.5709 22.1131 23.6562V35.7672L33.0198 23.3846C33.0198 23.3846 33.0198 23.3691 33.0198 23.3301C33.0501 23.2991 33.0652 23.2836 33.0652 23.2836C33.1028 23.2526 33.1481 23.1906 33.2085 23.0973C33.2387 23.0431 33.2838 22.9965 33.3366 22.9655C33.3971 22.8645 33.5479 22.6627 33.7892 22.3521C33.7892 22.3521 33.8043 22.3367 33.8344 22.3056C33.8648 22.2744 33.8798 22.2589 33.8798 22.2589C33.8798 22.2589 33.8949 22.2433 33.925 22.2124C33.9551 22.1813 33.9702 22.1501 33.9702 22.1269C34.0909 22.0026 34.174 21.9095 34.2042 21.8398C34.2042 21.7775 34.2342 21.7155 34.287 21.6535C34.3174 21.5989 34.3475 21.5369 34.3776 21.4747C34.4755 21.2884 34.5207 21.1644 34.5207 21.1021C34.5812 20.908 34.6113 20.7838 34.6113 20.7217C34.6113 20.6908 34.6113 20.652 34.6113 20.5897C34.5812 20.5587 34.5662 20.5122 34.5662 20.4499C34.5662 20.4499 34.5207 20.3414 34.4228 20.1241C34.3625 19.9611 34.1512 19.7903 33.7892 19.6115C33.4347 19.3942 32.9822 19.2777 32.4316 19.2777C32.4316 19.2777 32.4165 19.2777 32.3864 19.2777C32.3636 19.2777 32.3485 19.2777 32.3485 19.2777C32.3485 19.2777 32.3335 19.2777 32.3033 19.2777C32.2431 19.2777 32.213 19.2777 32.213 19.2777C32.1826 19.2777 32.1524 19.2777 32.1148 19.2777C32.0546 19.2777 32.0242 19.2777 32.0242 19.2777C31.9941 19.2777 31.9639 19.2777 31.9338 19.2777C31.8808 19.2467 31.8206 19.2389 31.7603 19.2389V17.9734H41.7618V19.2389C40.4644 19.4252 39.3933 19.8136 38.541 20.3957C37.8245 20.8925 37.1156 21.5292 36.4217 22.3056C36.3537 22.4374 36.2784 22.5462 36.1878 22.6315C36.1351 22.6937 36.037 22.7867 35.9162 22.9188L28.8112 31.0158L37.3192 46.0614C37.387 46.1545 37.4475 46.2554 37.5078 46.3408C37.5379 46.4341 37.5682 46.4962 37.5908 46.5272C37.7794 46.8066 37.8697 46.9464 37.8697 46.9464C37.8999 46.9464 37.9151 46.9464 37.9151 46.9464C37.9151 46.9464 37.9151 46.9619 37.9151 46.9929C37.9151 47.0241 37.9151 47.0396 37.9151 47.0396C38.0055 47.1327 38.0507 47.2027 38.0507 47.2259C38.1338 47.288 38.1941 47.3656 38.2244 47.4588C38.2244 47.4588 38.3299 47.5986 38.541 47.878C38.6316 48.0022 38.8126 48.173 39.0842 48.3904C39.3857 48.7009 39.7706 48.9494 40.2232 49.1434C40.6755 49.3842 41.2338 49.5006 41.89 49.5006H41.9807V50.766H32.213V49.5006H32.8388C33.5025 49.5006 33.9325 49.4152 34.1136 49.2289C34.287 49.0425 34.3776 48.8174 34.3776 48.5689C34.3776 48.4836 34.3475 48.3128 34.287 48.0566C34.2342 47.9712 34.1891 47.8624 34.1589 47.7383C34.0985 47.6141 34.0532 47.5054 34.0156 47.4122C34.0156 47.3811 34.0003 47.3501 33.9702 47.3191C33.9401 47.288 33.925 47.2725 33.925 47.2725C33.925 47.2415 33.9099 47.2182 33.8798 47.1871C33.8494 47.1561 33.8344 47.1172 33.8344 47.0784C33.8043 46.9619 33.7515 46.8066 33.6609 46.6126C33.563 46.4962 33.4875 46.3719 33.4272 46.2477L26.2316 33.8107L22.1131 38.4688V45.0832C22.1131 45.2074 22.1131 45.3472 22.1131 45.5024C22.1131 45.6576 22.1131 45.7974 22.1131 45.9217C22.1131 45.9838 22.1586 46.2943 22.249 46.8533C22.3396 47.4744 22.6263 48.0488 23.1088 48.5689C23.5614 49.1589 24.3609 49.4695 25.5073 49.5006V50.766H15.0911V49.5006C16.3281 49.5006 17.1729 49.159 17.633 48.4836C18.0779 47.8314 18.3495 47.0862 18.4401 46.2554C18.4401 46.1545 18.4552 46.0614 18.4928 45.9683C18.4928 45.8751 18.4928 45.7819 18.4928 45.6965C18.4928 45.5956 18.4928 45.4869 18.4928 45.3627C18.4928 45.2773 18.4928 45.1763 18.4928 45.0832V23.7029C18.4928 23.6097 18.4928 23.5244 18.4928 23.4311C18.4928 23.3301 18.4928 23.2371 18.4928 23.1438C18.4928 23.0585 18.4928 22.9498 18.4928 22.818C18.4552 22.7247 18.4401 22.6315 18.4401 22.5462C18.3495 21.762 18.0932 21.0168 17.6782 20.3024C17.1578 19.5882 16.298 19.2389 15.0911 19.2389V17.9734H25.5073Z" fill="white"/>
<path d="M57.5861 46.6746V38.4687C55.7533 39.2607 53.7922 40.3164 51.7028 41.6362C49.8926 42.8006 48.9877 44.3068 48.9877 46.1467C49.0404 46.9464 49.3421 47.5985 49.8926 48.1186C50.3979 48.6076 51.1599 48.8562 52.1554 48.8562C52.6005 48.8562 53.4001 48.6388 54.5541 48.2041C55.3384 47.9555 56.3492 47.4432 57.5861 46.6746ZM50.3452 33.4381C50.3452 34.2687 50.1642 34.8276 49.8023 35.1149C49.3722 35.4255 48.8669 35.5808 48.3011 35.5808C47.6298 35.3868 47.2074 35.1537 47.0416 34.8822C46.7098 34.4241 46.5437 34.0204 46.5437 33.6709C46.5437 32.0873 47.1772 30.8762 48.4444 30.0378C50.0511 28.9508 51.9368 28.4075 54.1015 28.4075C54.7953 28.4075 55.2178 28.4229 55.3612 28.454C55.8891 28.454 56.5076 28.5627 57.2165 28.78C58.2122 29.0984 59.0644 29.5874 59.7585 30.2706C60.7541 31.2953 61.2519 32.5376 61.2519 33.9892V46.8997C61.2519 47.8081 61.4027 48.5068 61.7045 48.9958C62.0288 49.5238 62.6624 49.7877 63.6053 49.7877L63.5599 50.7659H57.82L57.7597 48.5688C56.0023 49.6091 54.4936 50.3079 53.2415 50.6728C52.7363 50.8591 52.1101 50.9832 51.371 51.0687C50.6395 51.1463 50.1718 51.1851 49.9833 51.1851C48.6859 51.1851 47.6147 50.8901 46.7625 50.3001C45.6989 49.5393 45.0806 48.499 44.9069 47.1793C44.8768 46.9308 44.8617 46.4961 44.8617 45.875C44.8617 44.035 45.6763 42.5134 47.3055 41.3179C48.3312 40.5726 50.0511 39.6875 52.4723 38.655C52.7288 38.5462 53.5961 38.2592 55.082 37.7933C56.5679 37.3274 57.4201 37.0714 57.6315 37.0326V36.0544C57.6315 33.4768 57.5559 31.9785 57.4126 31.5748C56.8395 30.5189 55.7834 29.991 54.2373 29.991C53.4302 29.991 52.6307 30.193 51.8387 30.5966C51.2201 30.9072 50.8129 31.2643 50.6244 31.6679C50.4356 32.0717 50.3452 32.6616 50.3452 33.4381Z" fill="white"/>
<path d="M71.5782 30.1308L71.6234 29.153H87.3723V30.1308H86.9197C86.8896 30.1308 86.6105 30.2086 86.0826 30.3791C85.5546 30.5422 85.2454 30.7132 85.1548 30.8762C84.8229 31.4119 84.657 32.1183 84.657 33.019V46.9464C84.657 47.7615 84.8078 48.4136 85.1096 48.9028C85.3584 49.3298 85.8109 49.6014 86.4671 49.6946C86.7613 49.7567 87.048 49.7877 87.3269 49.7877V50.766H78.3212V49.7877H78.7286C79.5884 49.7877 80.1765 49.5549 80.4934 49.0968C80.8556 48.6234 81.0363 47.909 81.0363 46.9464V33.4769C81.0363 32.6152 80.9158 31.9475 80.6746 31.4816C80.3578 31.047 79.8598 30.8295 79.181 30.8295H77.5518C77.0389 30.8295 76.6769 30.9383 76.4583 31.1556C76.1641 31.4739 75.9831 31.7302 75.9225 31.9475C75.8698 32.2271 75.8171 32.4987 75.772 32.7549C75.7265 33.019 75.6813 33.2283 75.6587 33.3914C75.6208 33.7097 75.5756 34.0902 75.5229 34.5481C75.4699 35.0062 75.4398 35.2703 75.4248 35.3481C75.304 35.9845 75.2438 36.6444 75.2438 37.343C75.1835 37.8167 75.1381 38.3135 75.1004 38.8258C75.0552 39.3459 75.0327 39.6643 75.0174 39.7653C74.9571 40.1767 74.8968 40.5804 74.8366 40.9842C74.7761 41.3879 74.7309 41.7915 74.7083 42.1874C74.6101 42.7852 74.4894 43.4994 74.3385 44.338C74.2256 44.99 74.0596 45.7353 73.8407 46.5661C73.4787 47.9401 72.9809 49.058 72.3473 49.9198C71.7138 50.766 70.7485 51.1852 69.4584 51.1852C68.5535 51.0145 68.0406 50.8824 67.9123 50.8125C67.2712 50.6495 66.7885 50.3079 66.4641 49.7877C65.8835 48.9338 65.5968 48.1575 65.5968 47.4588C65.5968 46.4962 65.7477 45.7275 66.0494 45.1685C66.2302 44.8348 66.5093 44.5708 66.8866 44.3612C67.2637 44.1594 67.6407 44.0585 68.0103 44.0585C68.2819 44.0585 68.6441 44.2448 69.089 44.6173C69.451 44.9978 69.6322 45.3627 69.6322 45.6965C69.6623 45.8441 69.6773 46.108 69.6773 46.4806C69.6773 46.7368 69.5416 47.0318 69.27 47.3656C69.2549 47.4121 69.2022 47.4665 69.119 47.5287C69.0362 47.5986 68.9607 47.6684 68.9004 47.7383C68.8929 47.7615 68.8251 47.8469 68.7194 48.0022C68.6062 48.1575 68.5158 48.2972 68.4553 48.4214C68.3951 48.5534 68.3649 48.6932 68.3649 48.8562C68.3649 49.0269 68.5309 49.2289 68.8628 49.4618C68.9833 49.5549 69.2097 49.6092 69.5416 49.6092C69.6623 49.6092 69.8583 49.5704 70.1298 49.5006C70.311 49.4695 70.5597 49.3375 70.8615 49.0968C71.1256 48.8174 71.3367 48.4991 71.4875 48.1652C71.7591 47.6607 71.9854 47.0862 72.1664 46.4341C72.257 46.0924 72.3549 45.6421 72.438 45.0832C72.4605 44.9434 72.5738 44.3535 72.7699 43.3209C72.9734 42.2806 73.0866 41.6439 73.1168 41.4034C73.177 40.9686 73.2752 40.3165 73.3884 39.4547C73.5392 38.298 73.6751 37.149 73.7956 36.0077C73.9163 34.6647 73.9766 33.7487 73.9766 33.2518C73.9766 32.7004 73.9313 32.2813 73.8407 31.994C73.7579 31.6215 73.5242 31.2024 73.1619 30.7443C72.815 30.3327 72.2871 30.1308 71.5782 30.1308Z" fill="white"/>
<path d="M123.976 44.8969L129.037 29.153H136.376V30.1308C135.607 30.1308 135.064 30.2086 134.755 30.3714C134.453 30.4569 134.196 30.6742 133.978 31.0158C133.767 31.3186 133.661 31.7845 133.661 32.4134V47.552C133.661 48.1809 133.782 48.6466 134.023 48.9493C134.574 49.5083 135.373 49.7877 136.422 49.7877V50.766H127.416V49.7877C128.509 49.7489 129.279 49.4695 129.724 48.9493C130.025 48.6389 130.176 48.1652 130.176 47.5441V30.5034L123.66 50.766H122.392L115.242 30.7365V47.319C115.242 47.5597 115.287 47.8314 115.378 48.1186C115.559 48.6389 115.83 49.0425 116.192 49.322C116.569 49.6636 117.127 49.8344 117.874 49.8344V50.766H111.078V49.8344C111.9 49.8344 112.549 49.4618 113.024 48.7165C113.326 48.2197 113.477 47.5209 113.477 46.6126V33.1663C113.477 32.1725 113.311 31.4274 112.979 30.9228C112.61 30.3949 111.976 30.1308 111.078 30.1308V29.153H118.364L123.976 44.8969Z" fill="white"/>
<path d="M99.086 49.089C100.27 49.089 101.341 48.4835 102.299 47.2724C103.325 46.0924 103.883 44.0894 103.974 41.2635H94.2887C94.4095 43.7168 94.9525 45.642 95.9179 47.0318C96.4308 47.7692 96.9211 48.2972 97.3887 48.6154C97.8564 48.9338 98.4222 49.089 99.086 49.089ZM103.928 37.7233C103.906 36.9471 103.694 36.0776 103.287 35.1072C102.887 34.1445 102.352 33.2905 101.673 32.5454C100.519 31.2798 98.9652 30.6432 97.0117 30.6432C95.9255 30.6432 94.8543 30.9072 93.7909 31.4273C93.195 31.7767 92.4409 32.351 91.5281 33.1585L90.8569 32.1802C91.7772 31.2566 92.486 30.5889 92.9914 30.1775C93.497 29.7737 94.04 29.4555 94.6131 29.2459C95.8123 28.687 97.17 28.4075 98.6785 28.4075C101.341 28.454 103.626 29.7117 105.52 32.1802C107.202 34.3851 108.047 36.9781 108.047 39.9593C108.047 43.0492 107.156 45.6265 105.376 47.6916C104.547 48.6854 103.574 49.4462 102.442 49.9741C101.318 50.502 100.172 50.7659 98.9953 50.7659C97.7432 50.7659 96.5139 50.4787 95.3069 49.8965C94.1002 49.3142 93.1423 48.4835 92.4333 47.4121C90.955 45.1142 90.2006 42.5057 90.1705 39.5865H103.966C104.034 39.5865 104.071 39.447 104.071 39.1673C104.071 38.4997 104.019 38.0183 103.928 37.7233Z" fill="white"/>
<path d="M25.5073 17.9734V19.2389C24.3609 19.2932 23.5614 19.5883 23.1088 20.1241C22.6263 20.714 22.3396 21.3039 22.249 21.8862C22.1887 22.2899 22.1586 22.6082 22.1586 22.818C22.1586 22.942 22.1586 23.0896 22.1586 23.2371C22.1282 23.4234 22.1131 23.5709 22.1131 23.6562V35.7672L33.0198 23.3846C33.0198 23.3846 33.0198 23.3691 33.0198 23.3301C33.0501 23.2991 33.0652 23.2836 33.0652 23.2836C33.1028 23.2526 33.1481 23.1906 33.2085 23.0973C33.2387 23.0431 33.2838 22.9965 33.3366 22.9655C33.3971 22.8645 33.5479 22.6627 33.7892 22.3521C33.7892 22.3521 33.8043 22.3367 33.8344 22.3056C33.8648 22.2744 33.8798 22.2589 33.8798 22.2589C33.8798 22.2589 33.8949 22.2433 33.925 22.2124C33.9551 22.1813 33.9702 22.1501 33.9702 22.1269C34.0909 22.0026 34.174 21.9095 34.2042 21.8398C34.2042 21.7775 34.2342 21.7155 34.287 21.6535C34.3174 21.5989 34.3475 21.5369 34.3776 21.4747C34.4755 21.2884 34.5207 21.1644 34.5207 21.1021C34.5812 20.908 34.6113 20.7838 34.6113 20.7217C34.6113 20.6908 34.6113 20.652 34.6113 20.5897C34.5812 20.5587 34.5662 20.5122 34.5662 20.4499C34.5662 20.4499 34.5207 20.3414 34.4228 20.1241C34.3625 19.9611 34.1512 19.7903 33.7892 19.6115C33.4347 19.3942 32.9822 19.2777 32.4316 19.2777C32.4316 19.2777 32.4165 19.2777 32.3864 19.2777C32.3636 19.2777 32.3485 19.2777 32.3485 19.2777C32.3485 19.2777 32.3335 19.2777 32.3033 19.2777C32.2431 19.2777 32.213 19.2777 32.213 19.2777C32.1826 19.2777 32.1524 19.2777 32.1148 19.2777C32.0546 19.2777 32.0242 19.2777 32.0242 19.2777C31.9941 19.2777 31.9639 19.2777 31.9338 19.2777C31.8808 19.2467 31.8206 19.2389 31.7603 19.2389V17.9734H41.7618V19.2389C40.4644 19.4252 39.3933 19.8136 38.541 20.3957C37.8245 20.8925 37.1156 21.5292 36.4217 22.3056C36.3537 22.4374 36.2784 22.5462 36.1878 22.6315C36.1351 22.6937 36.037 22.7867 35.9162 22.9188L28.8112 31.0158L37.3192 46.0614C37.387 46.1545 37.4475 46.2554 37.5078 46.3408C37.5379 46.4341 37.5682 46.4962 37.5908 46.5272C37.7794 46.8066 37.8697 46.9464 37.8697 46.9464C37.8999 46.9464 37.9151 46.9464 37.9151 46.9464C37.9151 46.9464 37.9151 46.9619 37.9151 46.9929C37.9151 47.0241 37.9151 47.0396 37.9151 47.0396C38.0055 47.1327 38.0507 47.2027 38.0507 47.2259C38.1338 47.288 38.1941 47.3656 38.2244 47.4588C38.2244 47.4588 38.3299 47.5986 38.541 47.878C38.6316 48.0022 38.8126 48.173 39.0842 48.3904C39.3857 48.7009 39.7706 48.9494 40.2232 49.1434C40.6755 49.3842 41.2338 49.5006 41.89 49.5006H41.9807V50.766H32.213V49.5006H32.8388C33.5025 49.5006 33.9325 49.4152 34.1136 49.2289C34.287 49.0425 34.3776 48.8174 34.3776 48.5689C34.3776 48.4836 34.3475 48.3128 34.287 48.0566C34.2342 47.9712 34.1891 47.8624 34.1589 47.7383C34.0985 47.6141 34.0532 47.5054 34.0156 47.4122C34.0156 47.3811 34.0003 47.3501 33.9702 47.3191C33.9401 47.288 33.925 47.2725 33.925 47.2725C33.925 47.2415 33.9099 47.2182 33.8798 47.1871C33.8494 47.1561 33.8344 47.1172 33.8344 47.0784C33.8043 46.9619 33.7515 46.8066 33.6609 46.6126C33.563 46.4962 33.4875 46.3719 33.4272 46.2477L26.2316 33.8107L22.1131 38.4688V45.0832C22.1131 45.2074 22.1131 45.3472 22.1131 45.5024C22.1131 45.6576 22.1131 45.7974 22.1131 45.9217C22.1131 45.9838 22.1586 46.2943 22.249 46.8533C22.3396 47.4744 22.6263 48.0488 23.1088 48.5689C23.5614 49.1589 24.3609 49.4695 25.5073 49.5006V50.766H15.0911V49.5006C16.3281 49.5006 17.1729 49.159 17.633 48.4836C18.0779 47.8314 18.3495 47.0862 18.4401 46.2554C18.4401 46.1545 18.4552 46.0614 18.4928 45.9683C18.4928 45.8751 18.4928 45.7819 18.4928 45.6965C18.4928 45.5956 18.4928 45.4869 18.4928 45.3627C18.4928 45.2773 18.4928 45.1763 18.4928 45.0832V23.7029C18.4928 23.6097 18.4928 23.5244 18.4928 23.4311C18.4928 23.3301 18.4928 23.2371 18.4928 23.1438C18.4928 23.0585 18.4928 22.9498 18.4928 22.818C18.4552 22.7247 18.4401 22.6315 18.4401 22.5462C18.3495 21.762 18.0932 21.0168 17.6782 20.3024C17.1578 19.5882 16.298 19.2389 15.0911 19.2389V17.9734H25.5073V17.9734Z" stroke="white" stroke-width="0.0762" stroke-miterlimit="22.9256"/>
<path d="M57.5861 46.6746V38.4687C55.7533 39.2607 53.7922 40.3164 51.7028 41.6362C49.8926 42.8006 48.9877 44.3068 48.9877 46.1467C49.0404 46.9464 49.3421 47.5985 49.8926 48.1186C50.3979 48.6076 51.1599 48.8562 52.1554 48.8562C52.6005 48.8562 53.4001 48.6388 54.5541 48.2041C55.3383 47.9555 56.3492 47.4432 57.5861 46.6746V46.6746ZM50.3452 33.4381C50.3452 34.2687 50.1642 34.8276 49.8023 35.1149C49.3722 35.4255 48.8669 35.5808 48.3011 35.5808C47.6298 35.3868 47.2074 35.1537 47.0416 34.8822C46.7098 34.4241 46.5437 34.0204 46.5437 33.6709C46.5437 32.0873 47.1772 30.8762 48.4444 30.0378C50.0511 28.9508 51.9368 28.4075 54.1015 28.4075C54.7953 28.4075 55.2178 28.4229 55.3612 28.454C55.8891 28.454 56.5076 28.5627 57.2165 28.78C58.2122 29.0984 59.0644 29.5874 59.7585 30.2706C60.7541 31.2953 61.2519 32.5376 61.2519 33.9892V46.8997C61.2519 47.8081 61.4027 48.5068 61.7045 48.9958C62.0288 49.5238 62.6624 49.7877 63.6053 49.7877L63.5599 50.7659H57.82L57.7597 48.5688C56.0023 49.6091 54.4936 50.3079 53.2415 50.6728C52.7363 50.8591 52.1101 50.9832 51.371 51.0687C50.6395 51.1463 50.1718 51.1851 49.9833 51.1851C48.6859 51.1851 47.6147 50.8901 46.7625 50.3001C45.6989 49.5393 45.0806 48.499 44.9069 47.1793C44.8768 46.9308 44.8617 46.4961 44.8617 45.875C44.8617 44.035 45.6763 42.5134 47.3055 41.3179C48.3312 40.5726 50.0511 39.6875 52.4723 38.655C52.7288 38.5462 53.5961 38.2592 55.082 37.7933C56.5679 37.3275 57.4201 37.0714 57.6315 37.0326V36.0544C57.6315 33.4768 57.5559 31.9785 57.4126 31.5748C56.8395 30.5189 55.7834 29.991 54.2373 29.991C53.4302 29.991 52.6307 30.193 51.8387 30.5966C51.2201 30.9072 50.8129 31.2643 50.6244 31.6679C50.4356 32.0717 50.3452 32.6616 50.3452 33.4381V33.4381Z" stroke="white" stroke-width="0.0762" stroke-miterlimit="22.9256"/>
<path d="M71.5782 30.1308L71.6234 29.153H87.3723V30.1308H86.9197C86.8896 30.1308 86.6105 30.2086 86.0826 30.3791C85.5546 30.5422 85.2454 30.7132 85.1548 30.8762C84.8229 31.4119 84.657 32.1183 84.657 33.019V46.9464C84.657 47.7615 84.8078 48.4136 85.1096 48.9028C85.3584 49.3298 85.8109 49.6014 86.4671 49.6946C86.7613 49.7567 87.048 49.7877 87.3269 49.7877V50.766H78.3212V49.7877H78.7286C79.5884 49.7877 80.1765 49.5549 80.4934 49.0968C80.8556 48.6234 81.0363 47.909 81.0363 46.9464V33.4769C81.0363 32.6152 80.9158 31.9475 80.6746 31.4816C80.3578 31.047 79.8598 30.8295 79.181 30.8295H77.5518C77.0389 30.8295 76.6769 30.9383 76.4583 31.1556C76.1641 31.4739 75.9831 31.7302 75.9225 31.9475C75.8698 32.2271 75.8171 32.4987 75.772 32.7549C75.7265 33.019 75.6813 33.2283 75.6587 33.3914C75.6208 33.7097 75.5756 34.0902 75.5229 34.5481C75.4699 35.0062 75.4398 35.2703 75.4248 35.3481C75.304 35.9845 75.2438 36.6444 75.2438 37.343C75.1835 37.8167 75.1381 38.3135 75.1004 38.8258C75.0552 39.3459 75.0327 39.6643 75.0174 39.7653C74.9571 40.1767 74.8968 40.5804 74.8366 40.9842C74.7761 41.3879 74.7309 41.7915 74.7083 42.1874C74.6101 42.7852 74.4894 43.4994 74.3385 44.338C74.2256 44.99 74.0596 45.7353 73.8407 46.5661C73.4787 47.9401 72.9809 49.058 72.3473 49.9198C71.7138 50.766 70.7485 51.1852 69.4584 51.1852C68.5535 51.0145 68.0406 50.8824 67.9123 50.8125C67.2712 50.6495 66.7885 50.3079 66.4641 49.7877C65.8835 48.9338 65.5968 48.1575 65.5968 47.4588C65.5968 46.4962 65.7477 45.7275 66.0494 45.1685C66.2302 44.8348 66.5093 44.5708 66.8866 44.3612C67.2637 44.1594 67.6407 44.0585 68.0103 44.0585C68.2819 44.0585 68.6441 44.2448 69.089 44.6173C69.451 44.9978 69.6322 45.3627 69.6322 45.6965C69.6623 45.8441 69.6773 46.108 69.6773 46.4806C69.6773 46.7368 69.5416 47.0318 69.27 47.3656C69.2549 47.4121 69.2022 47.4665 69.119 47.5287C69.0362 47.5986 68.9607 47.6684 68.9004 47.7383C68.8929 47.7615 68.8251 47.8469 68.7194 48.0022C68.6062 48.1575 68.5158 48.2972 68.4553 48.4214C68.3951 48.5534 68.3649 48.6932 68.3649 48.8562C68.3649 49.0269 68.5309 49.2289 68.8628 49.4618C68.9833 49.5549 69.2097 49.6092 69.5416 49.6092C69.6623 49.6092 69.8583 49.5704 70.1298 49.5006C70.311 49.4695 70.5597 49.3375 70.8615 49.0968C71.1256 48.8174 71.3367 48.4991 71.4875 48.1652C71.7591 47.6607 71.9854 47.0862 72.1664 46.4341C72.257 46.0924 72.3549 45.6421 72.438 45.0832C72.4605 44.9434 72.5738 44.3535 72.7699 43.3209C72.9734 42.2806 73.0866 41.6439 73.1168 41.4034C73.177 40.9686 73.2752 40.3165 73.3884 39.4547C73.5392 38.298 73.6751 37.149 73.7956 36.0077C73.9163 34.6647 73.9766 33.7487 73.9766 33.2518C73.9766 32.7004 73.9313 32.2813 73.8407 31.994C73.7579 31.6215 73.5242 31.2024 73.1619 30.7443C72.815 30.3327 72.2871 30.1308 71.5782 30.1308V30.1308Z" stroke="white" stroke-width="0.0762" stroke-miterlimit="22.9256"/>
<path d="M123.976 44.8969L129.037 29.153H136.376V30.1308C135.607 30.1308 135.064 30.2086 134.755 30.3714C134.453 30.4569 134.196 30.6742 133.978 31.0158C133.767 31.3186 133.661 31.7845 133.661 32.4134V47.552C133.661 48.1809 133.782 48.6466 134.023 48.9493C134.574 49.5083 135.373 49.7877 136.422 49.7877V50.766H127.416V49.7877C128.509 49.7489 129.279 49.4695 129.724 48.9493C130.025 48.6389 130.176 48.1652 130.176 47.5441V30.5034L123.66 50.766H122.392L115.242 30.7365V47.319C115.242 47.5597 115.287 47.8314 115.378 48.1186C115.559 48.6389 115.83 49.0425 116.192 49.322C116.569 49.6636 117.127 49.8344 117.874 49.8344V50.766H111.078V49.8344C111.9 49.8344 112.549 49.4618 113.024 48.7165C113.326 48.2197 113.477 47.5209 113.477 46.6126V33.1663C113.477 32.1725 113.311 31.4274 112.979 30.9228C112.61 30.3949 111.976 30.1308 111.078 30.1308V29.153H118.364L123.976 44.8969V44.8969Z" stroke="white" stroke-width="0.0762" stroke-miterlimit="22.9256"/>
<path d="M99.086 49.089C100.27 49.089 101.341 48.4835 102.299 47.2724C103.325 46.0924 103.883 44.0894 103.974 41.2635H94.2887C94.4095 43.7168 94.9525 45.642 95.9179 47.0318C96.4308 47.7692 96.9211 48.2972 97.3887 48.6154C97.8564 48.9338 98.4222 49.089 99.086 49.089V49.089ZM103.928 37.7233C103.906 36.9471 103.694 36.0776 103.287 35.1072C102.887 34.1445 102.352 33.2905 101.673 32.5454C100.519 31.2798 98.9652 30.6432 97.0117 30.6432C95.9255 30.6432 94.8543 30.9072 93.7909 31.4273C93.195 31.7767 92.4409 32.351 91.5281 33.1585L90.8569 32.1802C91.7772 31.2566 92.486 30.5889 92.9914 30.1775C93.497 29.7737 94.04 29.4555 94.6131 29.2459C95.8123 28.687 97.17 28.4075 98.6785 28.4075C101.341 28.454 103.626 29.7117 105.52 32.1802C107.202 34.3851 108.047 36.9781 108.047 39.9593C108.047 43.0492 107.156 45.6265 105.376 47.6916C104.547 48.6854 103.574 49.4462 102.442 49.9741C101.318 50.502 100.172 50.7659 98.9953 50.7659C97.7432 50.7659 96.5139 50.4787 95.3069 49.8965C94.1002 49.3142 93.1423 48.4835 92.4333 47.4121C90.955 45.1142 90.2006 42.5057 90.1705 39.5865H103.966C104.034 39.5865 104.071 39.447 104.071 39.1673C104.071 38.4997 104.019 38.0183 103.928 37.7233V37.7233Z" stroke="white" stroke-width="0.0762" stroke-miterlimit="22.9256"/>
<path fill-rule="evenodd" clip-rule="evenodd" d="M144.224 46.101C142.696 45.3508 143.584 44.2464 144.183 44.1422H151.057C151.635 44.4548 152.238 45.5259 150.768 46.0594V48.2587C150.768 48.3381 150.82 48.4071 150.894 48.4273C151.938 48.7116 153.878 49.2736 154.196 49.4976C154.588 49.7617 155.393 50.5688 155.475 51.6858C155.599 52.6859 155.855 54.7656 155.888 55.0825C155.971 55.916 156.099 57.6789 155.95 58.0623C155.764 58.5416 155.331 58.8542 154.65 59H140.24C139.82 58.9445 138.98 58.5541 138.98 57.4372C139.09 55.784 139.352 52.3276 139.517 51.7274C139.723 50.9772 139.703 49.9561 141.54 49.2267C142.352 48.9767 144.162 48.4141 144.224 48.3933C144.247 48.3856 144.244 48.3647 144.244 48.3401L144.224 46.101Z" fill="white"/>
<path fill-rule="evenodd" clip-rule="evenodd" d="M142.425 57.7428H149.899C150.305 57.7428 150.696 57.6198 151.036 57.408L150.397 57.0336C150.174 57.1284 149.933 57.1811 149.686 57.1811H142.724C141.747 57.1811 141.026 56.3585 141.121 55.3529L141.457 51.8186L141.46 51.7891L140.951 51.49C140.949 51.5075 140.947 51.525 140.945 51.5427L140.567 55.629C140.459 56.7916 141.295 57.7428 142.425 57.7428Z" fill="url(#paint0_linear)"/>
<defs>
<linearGradient id="paint0_linear" x1="141.303" y1="56.8151" x2="144.44" y2="54.3993" gradientUnits="userSpaceOnUse">
<stop stop-color="#FEFEFE"/>
<stop offset="0.197917" stop-color="#DEDEDE"/>
<stop offset="0.921875" stop-color="#F2F2F2"/>
</linearGradient>
</defs>
</svg>
