<svg width="516" height="171" fill="none" xmlns="http://www.w3.org/2000/svg"><path fill-rule="evenodd" clip-rule="evenodd" d="M442.377 158.656H78.299v11.595H442.28l.096-4.326v-7.269z" fill="#fff"/><path fill-rule="evenodd" clip-rule="evenodd" d="M76.992 14.106c34.894 0 64.361 23.541 73.812 55.815-12.357-28.761-43.713-44.044-73.813-44.044-36.11 0-65.383 29.684-65.383 66.302 0 36.617 29.274 66.301 65.383 66.301 1.043 0 2.078-.027 3.108-.076l.402.084h37.141a75.83 75.83 0 01-40.65 11.763C34.47 170.251 0 135.297 0 92.178 0 49.06 34.47 14.106 76.992 14.106zm434.46 37.249c-1.672 5.583-4.648 10.552-8.982 14.595-9.298 8.673-22.689 11.226-34.922 9.744l-1.322-.16-.012 1.35c-.018 2.147.493 4.29 2.151 5.748 4.717 4.148 15.859-.395 20.763-2.46 3.411-1.436 6.751-3.032 10.084-4.647l1.655-.802-.515.588c-2.15 2.516-4.795 4.906-7.304 7.05-2.385 2.039-4.888 4.033-7.459 5.824-8.888 6.187-18.923 7.578-29.388 8.867l-4.208.519 3.858 1.782c3.24 1.497 8.836.931 12.36.518 3.05-.357 5.498-1.208 8.386-2.105.161-.05.321-.1.483-.147-2.422 3.925-7.682 8.345-10.869 10.265-1.29.777-2.854 1.483-4.22 2.115a107.549 107.549 0 01-7.234 3.049c-2.544.961-5.349 1.924-8.025 2.396-.692.123-3.335.505-3.852-.179-.236-.313.038-1.168.151-1.475 6.529-17.756 14.838-34.33 25.045-50.2 1.252-1.947 2.474-3.933 3.826-5.81 1.392-1.933 2.614-4.005 4.135-5.839.758-.914 1.356-1.913 2.048-2.872l14.287-18.07c-11.885 3.146-14.795 7.917-22.994 16.859-2.631 2.869-4.775 5.73-7.077 8.854l-1.631 2.211.067-1.514c.061-1.401-.137-2.924-.28-4.32-.185-1.815-.339-3.612-.336-5.438.007-4.892 1.12-9.296 3.576-13.53 2.054-3.543 4.778-6.262 8.205-8.432 4.424-2.803 9.586-4.455 14.516-6.09 5.338-1.77 10.671-3.58 15.458-6.634 1.15-.733 2.402-1.87 3.432-2.776a180.485 180.485 0 004.894-4.483 177.26 177.26 0 005.093-4.988L516 0a88.786 88.786 0 01-.279 4.377c-.322 3.842-.777 7.687-1.289 11.507a265.793 265.793 0 01-1.651 10.798c-.425 2.408-.879 5.055-1.573 7.396-5.09 17.194-17.399 24.966-34.12 28.152l-3.211.611 2.845 1.63c1.899 1.088 3.934 1.821 6.1 2.107 5.25.695 10.318-1.349 14.742-4.039 4.921-2.991 9.613-7.068 13.888-11.184zm-51.725 8.85l-1.889 2.56-.023.038c-3.211 5.08-6.504 10.127-9.619 15.268-4.115 6.794-7.779 13.802-11.368 20.892-2.04 4.03-3.888 8.108-5.759 12.216-.406.339-1.1.872-1.492.85-.505-.03-1.284-1.09-1.542-1.451l-.028-.039-.031-.037a20.785 20.785 0 01-3.533-6.026c-1.57-4.119-1.877-8.618-1.511-12.986.401-4.808 1.612-9.615 3.164-14.165 2.352-6.897 5.621-13.62 9.247-19.917.044-.076.087-.151.132-.226-.408 1.771-.788 3.55-1.099 5.341-1.184 6.814-2.058 17.457 6.84 19.077l2.462.448-1.206-2.222c-4.165-7.669-2.709-18.646-.058-26.583 2.175-6.513 5.936-13.531 11.05-18.15 2.076-1.875 4.341-3.648 6.622-5.255a67.977 67.977 0 011.888-1.285c-.82 1.17-1.577 2.338-2.253 3.615-1.067 2.017-1.899 4.163-2.615 6.33-2.06 6.24-1.75 13.624 1.394 19.439l1.227 2.268z" fill="#fff"/><path fill-rule="evenodd" clip-rule="evenodd" d="M422.831 152.41c6.631-17.578 5.533-13.778 10.142-25.284 4.747-11.852 6.55-14.747 11.732-26.102 6.099-13.364 14.197-28.155 21.864-40.48 6.433-10.338 8.524-11.796 14.566-19.94.503-.68.929-1.043 1.4-1.696-3.882 2.751-14.877 15.663-18.137 20.133-1.788 2.45-3.552 4.644-5.314 7.237-13.29 19.541-25.201 42.793-32.887 66.338-1.786 5.469-7.223 14.924-3.366 19.794z" fill="#fff"/><path d="M74.71 51.864v3.652c-3.358.157-5.7 1.008-7.025 2.554-1.413 1.703-2.253 3.405-2.519 5.085-.176 1.165-.264 2.083-.264 2.689v1.21c-.09.537-.133.963-.133 1.209v34.947l31.945-35.731v-.157l.133-.135c.11-.09.243-.268.42-.537.088-.157.22-.291.374-.38.178-.292.62-.874 1.326-1.77l.133-.135.133-.135.132-.134c.088-.09.132-.18.132-.247.354-.358.597-.627.686-.828 0-.18.088-.359.242-.538.089-.157.177-.336.266-.515.286-.538.419-.896.419-1.076.177-.56.265-.918.265-1.097v-.381c-.088-.09-.132-.224-.132-.404 0 0-.133-.313-.42-.94-.176-.47-.795-.963-1.856-1.479-1.038-.627-2.364-.963-3.976-.963h-1.458a.999.999 0 00-.508-.112v-3.652h29.294v3.652c-3.8.538-6.938 1.658-9.434 3.338-2.098 1.434-4.175 3.27-6.207 5.511-.199.38-.42.695-.685.94-.155.18-.442.449-.796.83L84.387 89.5l24.92 43.415c.198.269.375.56.552.807.088.269.177.448.243.538.552.806.817 1.209.817 1.209h.133v.269c.265.269.397.471.397.538.244.179.42.403.509.672l.927 1.209c.266.359.796.852 1.591 1.479.883.896 2.01 1.613 3.336 2.173 1.325.695 2.96 1.031 4.882 1.031h.266v3.651H94.35v-3.651h1.834c1.944 0 3.203-.247 3.733-.784.508-.538.774-1.188.774-1.905 0-.246-.089-.739-.266-1.478a3.212 3.212 0 01-.375-.919 14.31 14.31 0 01-.42-.941c0-.089-.044-.179-.133-.269l-.132-.134c0-.089-.044-.157-.132-.246a.444.444 0 01-.133-.314 7.817 7.817 0 00-.508-1.344 5.045 5.045 0 01-.685-1.053L76.831 97.565l-12.063 13.441v21.506c0 .18.134 1.075.398 2.688.266 1.793 1.106 3.45 2.519 4.951 1.325 1.703 3.667 2.599 7.025 2.689v3.651H44.201v-3.651c3.623 0 6.098-.986 7.446-2.935 1.303-1.882 2.098-4.032 2.363-6.43 0-.291.045-.56.155-.828V65.844a2.07 2.07 0 01-.155-.784c-.265-2.263-1.016-4.414-2.231-6.475-1.525-2.06-4.043-3.069-7.578-3.069v-3.652H74.71zm93.958 82.821v-23.679c-5.369 2.285-11.112 5.332-17.232 9.14-5.302 3.36-7.953 7.706-7.953 13.016.155 2.307 1.038 4.189 2.651 5.69 1.48 1.411 3.712 2.128 6.628 2.128 1.303 0 3.645-.627 7.025-1.882 2.297-.717 5.258-2.195 8.881-4.413zM147.46 96.489c0 2.397-.531 4.01-1.591 4.839-1.259.896-2.739 1.345-4.397 1.345-1.966-.56-3.203-1.233-3.689-2.017-.972-1.321-1.458-2.486-1.458-3.495 0-4.57 1.855-8.064 5.567-10.484 4.706-3.136 10.229-4.704 16.569-4.704 2.033 0 3.27.045 3.69.134 1.546 0 3.358.314 5.434.941 2.916.919 5.413 2.33 7.446 4.301 2.916 2.957 4.374 6.542 4.374 10.73v37.256c0 2.621.442 4.637 1.325 6.048.95 1.524 2.806 2.285 5.568 2.285l-.133 2.823h-16.812l-.177-6.34c-5.147 3.002-9.566 5.018-13.234 6.071-1.479.538-3.313.896-5.478 1.143-2.143.224-3.513.336-4.065.336-3.8 0-6.937-.852-9.433-2.554-3.115-2.196-4.926-5.198-5.435-9.006-.088-.717-.133-1.971-.133-3.763 0-5.31 2.386-9.701 7.158-13.15 3.005-2.151 8.042-4.705 15.134-7.685.751-.313 3.291-1.142 7.643-2.486 4.352-1.344 6.849-2.083 7.468-2.195v-2.823c0-7.438-.222-11.761-.641-12.926-1.679-3.047-4.772-4.57-9.301-4.57-2.364 0-4.706.582-7.025 1.747-1.812.896-3.005 1.927-3.557 3.091-.553 1.166-.817 2.868-.817 5.108zm62.188-9.543l.132-2.822h46.129v2.822h-1.326c-.088 0-.906.224-2.452.716-1.546.47-2.452.964-2.718 1.435-.972 1.546-1.458 3.584-1.458 6.183v40.189c0 2.352.442 4.234 1.326 5.646.729 1.232 2.054 2.016 3.976 2.284.862.18 1.702.269 2.519.269v2.823h-26.378v-2.823h1.194c2.518 0 4.24-.672 5.168-1.993 1.061-1.367 1.591-3.428 1.591-6.206V96.601c0-2.486-.353-4.413-1.06-5.757-.928-1.254-2.386-1.882-4.375-1.882h-4.771c-1.503 0-2.563.314-3.203.941-.862.918-1.392 1.658-1.569 2.285-.155.807-.309 1.59-.441 2.33-.134.762-.266 1.366-.332 1.837-.111.918-.244 2.016-.398 3.338-.155 1.321-.243 2.083-.287 2.308a30.25 30.25 0 00-.531 5.757 80.388 80.388 0 00-.419 4.278c-.133 1.501-.199 2.42-.244 2.711-.176 1.187-.353 2.352-.529 3.517a37.687 37.687 0 00-.376 3.473 393.518 393.518 0 01-1.083 6.205c-.331 1.882-.817 4.032-1.458 6.43-1.06 3.965-2.518 7.19-4.374 9.677-1.856 2.442-4.683 3.652-8.462 3.652-2.65-.493-4.152-.874-4.528-1.076-1.878-.47-3.292-1.456-4.242-2.957-1.7-2.464-2.54-4.704-2.54-6.72 0-2.778.442-4.996 1.326-6.609.529-.963 1.347-1.725 2.452-2.33 1.104-.582 2.208-.873 3.291-.873.795 0 1.856.537 3.159 1.612 1.061 1.098 1.591 2.151 1.591 3.114.089.426.133 1.188.133 2.263 0 .739-.398 1.591-1.194 2.554-.044.134-.198.291-.442.47a5.884 5.884 0 00-.64.605c-.022.067-.221.314-.53.762-.332.448-.596.851-.774 1.209a2.91 2.91 0 00-.264 1.255c0 .493.486 1.076 1.458 1.748.353.268 1.016.425 1.988.425.354 0 .928-.112 1.723-.313.53-.09 1.259-.471 2.143-1.165a9.824 9.824 0 001.834-2.689c.795-1.456 1.458-3.114 1.988-4.995.265-.986.552-2.286.795-3.898.067-.404.398-2.106.972-5.086.597-3.002.928-4.839 1.017-5.533.176-1.254.464-3.136.795-5.623.442-3.338.84-6.653 1.193-9.947.353-3.875.53-6.518.53-7.952 0-1.591-.133-2.8-.398-3.63-.243-1.075-.927-2.284-1.988-3.606-1.016-1.188-2.563-1.77-4.639-1.77zm153.474 42.609l14.824-45.43h21.495v2.82c-2.253 0-3.844.225-4.75.695-.883.247-1.635.874-2.275 1.86-.619.873-.928 2.218-.928 4.032v43.685c0 1.814.354 3.158 1.061 4.032 1.612 1.613 3.954 2.419 7.024 2.419v2.823h-26.377v-2.823c3.203-.112 5.456-.918 6.76-2.419.884-.896 1.326-2.263 1.326-4.055V88.021l-19.088 58.47h-3.711l-20.944-57.797v47.85c0 .695.132 1.479.398 2.308.53 1.501 1.326 2.666 2.386 3.472 1.104.986 2.739 1.479 4.926 1.479v2.688h-19.904v-2.688c2.407 0 4.307-1.075 5.699-3.226.884-1.434 1.325-3.45 1.325-6.071v-38.8c0-2.868-.485-5.019-1.457-6.475-1.083-1.523-2.939-2.285-5.567-2.285v-2.822h21.34l16.437 45.431zm-72.904 12.097c3.469 0 6.605-1.747 9.412-5.242 3.004-3.405 4.639-9.185 4.904-17.339h-28.367c.354 7.079 1.945 12.634 4.772 16.645 1.503 2.128 2.938 3.651 4.308 4.569 1.37.919 3.027 1.367 4.971 1.367zm14.183-32.797c-.066-2.24-.685-4.749-1.877-7.549-1.171-2.778-2.74-5.242-4.729-7.393-3.38-3.651-7.93-5.489-13.652-5.489-3.181 0-6.319.762-9.434 2.263-1.745 1.008-3.954 2.666-6.627 4.996l-1.966-2.823c2.695-2.666 4.772-4.592 6.252-5.78 1.48-1.164 3.071-2.083 4.75-2.688 3.512-1.612 7.489-2.419 11.907-2.419 7.798.134 14.492 3.764 20.037 10.887 4.927 6.362 7.402 13.845 7.402 22.447 0 8.916-2.607 16.354-7.821 22.313-2.43 2.867-5.28 5.063-8.594 6.586-3.292 1.523-6.65 2.285-10.096 2.285-3.667 0-7.268-.829-10.803-2.509-3.535-1.68-6.34-4.077-8.417-7.169-4.33-6.631-6.539-14.158-6.628-22.582h40.407c.199 0 .309-.402.309-1.209 0-1.927-.155-3.316-.42-4.167z" fill="#fff"/><path d="M74.71 51.864v3.652c-3.358.157-5.7 1.008-7.025 2.554-1.413 1.703-2.253 3.405-2.519 5.085-.176 1.165-.264 2.083-.264 2.689v1.21c-.09.537-.133.963-.133 1.209v34.947l31.945-35.731v-.157l.133-.135c.11-.09.243-.268.42-.537.088-.157.22-.291.374-.38.178-.292.62-.874 1.326-1.77l.133-.135.133-.135.132-.134c.088-.09.132-.18.132-.247.354-.358.597-.627.686-.828 0-.18.088-.359.242-.538.089-.157.177-.336.266-.515.286-.538.419-.896.419-1.076.177-.56.265-.918.265-1.097v-.381c-.088-.09-.132-.224-.132-.404 0 0-.133-.313-.42-.94-.176-.47-.795-.963-1.856-1.479-1.038-.627-2.364-.963-3.976-.963h-1.458a.999.999 0 00-.508-.112v-3.652h29.294v3.652c-3.8.538-6.938 1.658-9.434 3.338-2.098 1.434-4.175 3.27-6.207 5.511-.199.38-.42.695-.685.94-.155.18-.442.449-.796.83L84.387 89.5l24.92 43.415c.198.269.375.56.552.807.088.269.177.448.243.538.552.806.817 1.209.817 1.209h.133v.269c.265.269.397.471.397.538.244.179.42.403.509.672l.927 1.209c.266.359.796.852 1.591 1.479.883.896 2.01 1.613 3.336 2.173 1.325.695 2.96 1.031 4.882 1.031h.266v3.651H94.35v-3.651h1.834c1.944 0 3.203-.247 3.733-.784.508-.538.774-1.188.774-1.905 0-.246-.089-.739-.266-1.478a3.212 3.212 0 01-.375-.919c-.177-.358-.31-.672-.42-.941 0-.089-.044-.179-.133-.269l-.132-.134c0-.089-.044-.157-.132-.246a.444.444 0 01-.133-.314 7.817 7.817 0 00-.508-1.344 5.045 5.045 0 01-.685-1.053L76.831 97.565l-12.063 13.441v21.506c0 .18.134 1.075.398 2.688.266 1.793 1.106 3.45 2.519 4.951 1.325 1.703 3.667 2.599 7.025 2.689v3.651H44.201v-3.651c3.623 0 6.098-.986 7.446-2.935 1.303-1.882 2.098-4.032 2.363-6.43 0-.291.045-.56.155-.828V65.844a2.07 2.07 0 01-.155-.784c-.265-2.263-1.016-4.414-2.231-6.475-1.525-2.06-4.043-3.069-7.578-3.069v-3.652H74.71v0zm93.958 82.821v-23.679c-5.369 2.285-11.112 5.332-17.232 9.14-5.302 3.36-7.953 7.706-7.953 13.016.155 2.307 1.038 4.189 2.651 5.69 1.48 1.411 3.712 2.128 6.628 2.128 1.303 0 3.645-.627 7.025-1.882 2.297-.717 5.258-2.195 8.881-4.413v0zM147.46 96.489c0 2.397-.531 4.01-1.591 4.839-1.259.896-2.739 1.345-4.397 1.345-1.966-.56-3.203-1.233-3.689-2.017-.972-1.321-1.458-2.486-1.458-3.495 0-4.57 1.855-8.064 5.567-10.484 4.706-3.136 10.229-4.704 16.569-4.704 2.033 0 3.27.045 3.69.134 1.546 0 3.358.314 5.434.941 2.916.919 5.413 2.33 7.446 4.301 2.916 2.957 4.374 6.542 4.374 10.73v37.256c0 2.621.442 4.637 1.325 6.048.95 1.524 2.806 2.285 5.568 2.285l-.133 2.823h-16.812l-.177-6.34c-5.147 3.002-9.566 5.018-13.234 6.071-1.479.538-3.313.896-5.478 1.143-2.143.224-3.513.336-4.065.336-3.8 0-6.937-.852-9.433-2.554-3.115-2.196-4.926-5.198-5.435-9.006-.088-.717-.133-1.971-.133-3.763 0-5.31 2.386-9.701 7.158-13.15 3.005-2.151 8.042-4.705 15.134-7.685.751-.313 3.291-1.142 7.643-2.486 4.352-1.344 6.849-2.083 7.468-2.195v-2.823c0-7.438-.222-11.761-.641-12.926-1.679-3.047-4.772-4.57-9.301-4.57-2.364 0-4.706.582-7.025 1.747-1.812.896-3.005 1.927-3.557 3.091-.553 1.166-.817 2.868-.817 5.108v0zm62.188-9.543l.132-2.822h46.129v2.822h-1.326c-.088 0-.906.224-2.452.716-1.546.47-2.452.964-2.718 1.435-.972 1.546-1.458 3.584-1.458 6.183v40.189c0 2.352.442 4.234 1.326 5.646.729 1.232 2.054 2.016 3.976 2.284.862.18 1.702.269 2.519.269v2.823h-26.378v-2.823h1.194c2.518 0 4.24-.672 5.168-1.993 1.061-1.367 1.591-3.428 1.591-6.206V96.601c0-2.486-.353-4.413-1.06-5.757-.928-1.254-2.386-1.882-4.375-1.882h-4.771c-1.503 0-2.563.314-3.203.941-.862.918-1.392 1.658-1.569 2.285-.155.807-.309 1.59-.441 2.33-.134.762-.266 1.366-.332 1.837-.111.918-.244 2.016-.398 3.338-.155 1.321-.243 2.083-.287 2.308a30.25 30.25 0 00-.531 5.757 80.388 80.388 0 00-.419 4.278c-.133 1.501-.199 2.42-.244 2.711-.176 1.187-.353 2.352-.529 3.517a37.687 37.687 0 00-.376 3.473 393.518 393.518 0 01-1.083 6.205c-.331 1.882-.817 4.032-1.458 6.43-1.06 3.965-2.518 7.19-4.374 9.677-1.856 2.442-4.683 3.652-8.462 3.652-2.65-.493-4.152-.874-4.528-1.076-1.878-.47-3.292-1.456-4.242-2.957-1.7-2.464-2.54-4.704-2.54-6.72 0-2.778.442-4.996 1.326-6.609.529-.963 1.347-1.725 2.452-2.33 1.104-.582 2.208-.873 3.291-.873.795 0 1.856.537 3.159 1.612 1.061 1.098 1.591 2.151 1.591 3.114.089.426.133 1.188.133 2.263 0 .739-.398 1.591-1.194 2.554-.044.134-.198.291-.442.47a5.884 5.884 0 00-.64.605c-.022.067-.221.314-.53.762-.332.448-.596.851-.774 1.209a2.91 2.91 0 00-.264 1.255c0 .493.486 1.076 1.458 1.748.353.268 1.016.425 1.988.425.354 0 .928-.112 1.723-.313.53-.09 1.259-.471 2.143-1.165a9.824 9.824 0 001.834-2.689c.795-1.456 1.458-3.114 1.988-4.995.265-.986.552-2.286.795-3.898.067-.404.398-2.106.972-5.086.597-3.002.928-4.839 1.017-5.533.176-1.254.464-3.136.795-5.623.442-3.338.84-6.653 1.193-9.947.353-3.875.53-6.518.53-7.952 0-1.591-.133-2.8-.398-3.63-.243-1.075-.927-2.284-1.988-3.606-1.016-1.188-2.563-1.77-4.639-1.77v0zm153.474 42.609l14.824-45.43h21.495v2.82c-2.253 0-3.844.225-4.75.695-.883.247-1.635.874-2.275 1.86-.619.873-.928 2.218-.928 4.032v43.685c0 1.814.354 3.158 1.061 4.032 1.612 1.613 3.954 2.419 7.024 2.419v2.823h-26.377v-2.823c3.203-.112 5.456-.918 6.76-2.419.884-.896 1.326-2.263 1.326-4.055V88.021l-19.088 58.47h-3.711l-20.944-57.797v47.85c0 .695.132 1.479.398 2.308.53 1.501 1.326 2.666 2.386 3.472 1.104.986 2.739 1.479 4.926 1.479v2.688h-19.904v-2.688c2.407 0 4.307-1.075 5.699-3.226.884-1.434 1.325-3.45 1.325-6.071v-38.8c0-2.868-.485-5.019-1.457-6.475-1.083-1.523-2.939-2.285-5.567-2.285v-2.822h21.34l16.437 45.431v0zm-72.904 12.097c3.469 0 6.605-1.747 9.412-5.242 3.004-3.405 4.639-9.185 4.904-17.339h-28.367c.354 7.079 1.945 12.634 4.772 16.645 1.503 2.128 2.938 3.651 4.308 4.569 1.37.919 3.027 1.367 4.971 1.367v0zm14.183-32.797c-.066-2.24-.685-4.749-1.877-7.549-1.171-2.778-2.74-5.242-4.729-7.393-3.38-3.651-7.93-5.489-13.652-5.489-3.181 0-6.319.762-9.434 2.263-1.745 1.008-3.954 2.666-6.627 4.996l-1.966-2.823c2.695-2.666 4.772-4.592 6.252-5.78 1.48-1.164 3.071-2.083 4.75-2.688 3.512-1.612 7.489-2.419 11.907-2.419 7.798.134 14.492 3.764 20.038 10.887 4.926 6.362 7.401 13.845 7.401 22.447 0 8.916-2.607 16.354-7.821 22.313-2.43 2.867-5.28 5.063-8.594 6.586-3.292 1.523-6.65 2.285-10.096 2.285-3.667 0-7.268-.829-10.803-2.509-3.535-1.68-6.34-4.077-8.417-7.169-4.33-6.631-6.539-14.158-6.628-22.582h40.407c.199 0 .309-.402.309-1.209 0-1.927-.155-3.316-.42-4.167v0z" stroke="#fff" stroke-width=".076" stroke-miterlimit="22.926"/><path fill-rule="evenodd" clip-rule="evenodd" d="M422.426 133.03c-4.475-2.165-1.874-5.352-.121-5.653h20.136c1.693.902 3.458 3.993-.847 5.533v6.346a.5.5 0 00.368.486c3.058.821 8.741 2.443 9.67 3.089 1.148.762 3.507 3.091 3.749 6.314.363 2.886 1.112 8.887 1.209 9.802.242 2.405.617 7.492.181 8.598-.544 1.383-1.813 2.286-3.809 2.706h-42.206c-1.23-.16-3.689-1.286-3.689-4.509.322-4.771 1.088-14.745 1.572-16.477.605-2.165.544-5.111 5.926-7.216 2.378-.721 7.68-2.345 7.861-2.405.066-.022.059-.082.059-.153l-.059-6.461z" fill="#fff"/><path fill-rule="evenodd" clip-rule="evenodd" d="M417.155 166.623h21.892c1.19 0 2.335-.355 3.329-.966l-1.869-1.081a5.387 5.387 0 01-2.083.426h-20.393c-2.862 0-4.974-2.374-4.693-5.275l.984-10.199.009-.085-1.493-.863-.017.152-1.108 11.791c-.316 3.355 2.133 6.1 5.442 6.1z" fill="#F5F5F5"/><path d="M210.867 52.5h1.61V64h-1.978v-8.073L204.128 64h-1.61V52.5h1.978v8.073l6.371-8.073zm12.614 0h2.001V64h-2.001v-4.807h-5.957V64h-2.001V52.5h2.001v4.784h5.957V52.5zm13.603 0v1.932h-3.91V64h-2.001v-9.568h-3.933V52.5h9.844zm2.707 6.67c.199 1.027.667 1.825 1.403 2.392.751.567 1.671.851 2.76.851 1.518 0 2.622-.56 3.312-1.679l1.702.966c-1.119 1.733-2.806 2.599-5.06 2.599-1.825 0-3.312-.567-4.462-1.702-1.135-1.15-1.702-2.599-1.702-4.347 0-1.733.56-3.174 1.679-4.324s2.568-1.725 4.347-1.725c1.687 0 3.059.598 4.117 1.794 1.073 1.18 1.61 2.607 1.61 4.278 0 .291-.023.59-.069.897h-9.637zm3.979-5.083c-1.073 0-1.963.307-2.668.92-.705.598-1.142 1.403-1.311 2.415h7.682c-.169-1.089-.598-1.917-1.288-2.484-.69-.567-1.495-.851-2.415-.851zm14.375-1.886c1.61 0 2.983.59 4.117 1.771 1.135 1.165 1.702 2.591 1.702 4.278 0 1.687-.567 3.12-1.702 4.301-1.134 1.165-2.507 1.748-4.117 1.748-1.901 0-3.35-.759-4.347-2.277V68.6h-2.001V52.5h2.001v1.978c.997-1.518 2.446-2.277 4.347-2.277zm-.253 10.166c1.15 0 2.116-.391 2.898-1.173.782-.797 1.173-1.779 1.173-2.944s-.391-2.139-1.173-2.921c-.782-.797-1.748-1.196-2.898-1.196-1.165 0-2.139.399-2.921 1.196-.782.782-1.173 1.756-1.173 2.921 0 1.165.391 2.147 1.173 2.944.782.782 1.756 1.173 2.921 1.173zM274.31 52.5h2.001V64h-2.001v-4.807h-5.957V64h-2.001V52.5h2.001v4.784h5.957V52.5zm6.45 6.67c.199 1.027.667 1.825 1.403 2.392.751.567 1.671.851 2.76.851 1.518 0 2.622-.56 3.312-1.679l1.702.966c-1.119 1.733-2.806 2.599-5.06 2.599-1.825 0-3.312-.567-4.462-1.702-1.135-1.15-1.702-2.599-1.702-4.347 0-1.733.56-3.174 1.679-4.324s2.568-1.725 4.347-1.725c1.687 0 3.059.598 4.117 1.794 1.073 1.18 1.61 2.607 1.61 4.278 0 .291-.023.59-.069.897h-9.637zm3.979-5.083c-1.073 0-1.963.307-2.668.92-.705.598-1.142 1.403-1.311 2.415h7.682c-.169-1.089-.598-1.917-1.288-2.484-.69-.567-1.495-.851-2.415-.851zm16.134-1.587v1.932h-3.91V64h-2.001v-9.568h-3.933V52.5h9.844zm1.242 5.405v-1.932h8.395v1.932h-8.395zm23.13-5.405V64h-1.955v-8.349l-3.657 5.888h-.253l-3.657-5.888V64h-1.978V52.5h2.139l3.611 5.819 3.611-5.819h2.139zm12.576 0h2.001V64h-2.001v-1.978c-.996 1.518-2.445 2.277-4.347 2.277-1.61 0-2.982-.583-4.117-1.748-1.134-1.18-1.702-2.614-1.702-4.301 0-1.687.568-3.113 1.702-4.278 1.135-1.18 2.507-1.771 4.117-1.771 1.902 0 3.351.759 4.347 2.277V52.5zm-4.094 9.867c1.166 0 2.139-.391 2.921-1.173.782-.797 1.173-1.779 1.173-2.944s-.391-2.139-1.173-2.921c-.782-.797-1.755-1.196-2.921-1.196-1.15 0-2.116.399-2.898 1.196-.782.782-1.173 1.756-1.173 2.921 0 1.165.391 2.147 1.173 2.944.782.782 1.748 1.173 2.898 1.173zm16.671-9.867v1.932h-5.543V64h-2.001V52.5h7.544zm10.828 0h2.001V64h-2.001v-1.978c-.997 1.518-2.446 2.277-4.347 2.277-1.61 0-2.983-.583-4.117-1.748-1.135-1.18-1.702-2.614-1.702-4.301 0-1.687.567-3.113 1.702-4.278 1.134-1.18 2.507-1.771 4.117-1.771 1.901 0 3.35.759 4.347 2.277V52.5zm-4.094 9.867c1.165 0 2.139-.391 2.921-1.173.782-.797 1.173-1.779 1.173-2.944s-.391-2.139-1.173-2.921c-.782-.797-1.756-1.196-2.921-1.196-1.15 0-2.116.399-2.898 1.196-.782.782-1.173 1.756-1.173 2.921 0 1.165.391 2.147 1.173 2.944.782.782 1.748 1.173 2.898 1.173zm15.336-4.255c1.273.521 1.909 1.434 1.909 2.737 0 .966-.383 1.786-1.15 2.461-.766.66-1.855.989-3.266.989-2.3 0-3.841-.92-4.623-2.76l1.679-.989c.445 1.257 1.434 1.886 2.967 1.886.767 0 1.357-.161 1.771-.483.43-.337.644-.767.644-1.288 0-.46-.176-.836-.529-1.127-.337-.291-.797-.437-1.38-.437h-1.679v-1.817h1.242c.583 0 1.035-.138 1.357-.414.322-.291.483-.682.483-1.173 0-.49-.191-.89-.575-1.196-.368-.307-.881-.46-1.541-.46-1.288 0-2.162.544-2.622 1.633l-1.633-.943c.813-1.687 2.231-2.53 4.255-2.53 1.258 0 2.247.322 2.967.966.736.644 1.104 1.434 1.104 2.369 0 1.165-.46 2.024-1.38 2.576zm12.426-5.612h1.61V64h-1.978v-8.073L378.155 64h-1.61V52.5h1.978v8.073l6.371-8.073zm12.614 0h2.001V64h-2.001v-4.807h-5.957V64h-2.001V52.5h2.001v4.784h5.957V52.5z" fill="#fff"/></svg>