<svg width="177" height="59" fill="none" xmlns="http://www.w3.org/2000/svg"><path fill-rule="evenodd" clip-rule="evenodd" d="M151.035 54.982H26.733V59h124.27l.032-1.5v-2.518z" fill="#fff"/><path fill-rule="evenodd" clip-rule="evenodd" d="M26.286 4.889c11.914 0 21.975 8.158 25.201 19.342-4.219-9.967-14.924-15.263-25.2-15.263-12.33 0-22.324 10.287-22.324 22.976 0 12.69 9.995 22.977 22.323 22.977.356 0 .71-.01 1.061-.027l.137.03h12.681A25.611 25.611 0 0126.286 59C11.77 59 0 46.887 0 31.944 0 17.002 11.77 4.89 26.286 4.89zm148.333 12.908c-.571 1.935-1.587 3.657-3.067 5.058-3.174 3.005-7.746 3.89-11.923 3.377l-.451-.056-.004.468c-.006.744.168 1.487.734 1.992 1.611 1.437 5.415-.137 7.089-.853 1.165-.497 2.305-1.05 3.443-1.61l.565-.278-.176.204c-.734.872-1.637 1.7-2.494 2.443a32.926 32.926 0 01-2.546 2.018c-3.035 2.144-6.461 2.626-10.034 3.073l-1.436.18 1.317.617c1.106.519 3.016.323 4.22.18 1.041-.124 1.877-.419 2.863-.73l.165-.05c-.827 1.36-2.623 2.891-3.711 3.557-.441.269-.975.514-1.441.733-.81.38-1.635.737-2.47 1.056-.868.333-1.826.667-2.74.83-.236.043-1.138.176-1.315-.061-.08-.109.013-.405.052-.512a88.792 88.792 0 018.55-17.396c.428-.675.845-1.363 1.307-2.014.475-.67.892-1.387 1.411-2.023.259-.317.463-.663.7-.995l4.878-6.262c-4.058 1.09-5.052 2.743-7.851 5.842-.898.994-1.63 1.986-2.416 3.068l-.557.767.023-.525c.021-.486-.047-1.014-.096-1.497a18.536 18.536 0 01-.114-1.885c.002-1.695.382-3.221 1.22-4.689.702-1.227 1.632-2.17 2.802-2.922 1.51-.97 3.273-1.544 4.956-2.11 1.822-.613 3.643-1.24 5.277-2.299.393-.254.82-.648 1.172-.962a61.16 61.16 0 001.671-1.553 60.353 60.353 0 001.739-1.73l.241-.248a33.36 33.36 0 01-.095 1.517 81.98 81.98 0 01-.441 3.988c-.164 1.25-.348 2.5-.564 3.742-.144.834-.3 1.751-.536 2.563-1.738 5.958-5.941 8.652-11.65 9.755l-1.096.212.971.565a5.605 5.605 0 002.083.73c1.792.241 3.523-.467 5.033-1.4 1.68-1.036 3.282-2.449 4.742-3.875zm-17.66 3.067l-.645.887-.008.013c-1.096 1.76-2.22 3.51-3.284 5.291-1.405 2.355-2.656 4.783-3.881 7.24-.696 1.397-1.328 2.81-1.966 4.234-.139.117-.376.302-.51.294-.172-.01-.438-.377-.526-.502l-.01-.014-.01-.013a7.218 7.218 0 01-1.207-2.088c-.536-1.428-.64-2.987-.515-4.5.137-1.666.55-3.332 1.08-4.91.803-2.39 1.919-4.72 3.157-6.902l.045-.078c-.139.614-.269 1.23-.375 1.851-.404 2.361-.703 6.05 2.335 6.611l.841.155-.412-.77c-1.422-2.657-.925-6.461-.02-9.212.743-2.257 2.027-4.689 3.773-6.29a24.235 24.235 0 012.905-2.266 11.7 11.7 0 00-.769 1.253c-.364.699-.648 1.443-.893 2.194-.703 2.162-.597 4.72.476 6.736l.419.786z" fill="#fff"/><path fill-rule="evenodd" clip-rule="evenodd" d="M144.362 52.817c2.264-6.091 1.889-4.774 3.463-8.762 1.621-4.107 2.236-5.11 4.005-9.045 2.083-4.631 4.848-9.757 7.465-14.028 2.196-3.583 2.911-4.088 4.973-6.911.172-.235.318-.361.478-.588-1.325.954-5.079 5.428-6.192 6.977-.61.85-1.213 1.61-1.814 2.508-4.538 6.773-8.604 14.83-11.229 22.99-.609 1.895-2.466 5.172-1.149 6.86z" fill="#fff"/><path d="M25.507 17.973v1.266c-1.146.054-1.946.35-2.398.885-.483.59-.77 1.18-.86 1.762-.06.404-.09.722-.09.932v.42c-.03.185-.046.333-.046.418v12.111L33.02 23.385v-.055l.045-.046a.891.891 0 00.144-.187.36.36 0 01.128-.132c.06-.1.21-.302.452-.613l.045-.046.046-.047.045-.047c.03-.03.045-.062.045-.085.12-.124.204-.217.234-.287 0-.063.03-.125.083-.186.03-.055.06-.117.09-.18.098-.186.144-.31.144-.372.06-.194.09-.318.09-.38v-.132c-.03-.031-.045-.078-.045-.14 0 0-.045-.109-.143-.326-.06-.163-.272-.334-.634-.512-.354-.218-.807-.334-1.357-.334h-.498a.337.337 0 00-.174-.04v-1.265h10.002v1.266c-1.298.186-2.369.575-3.221 1.157-.716.496-1.425 1.133-2.12 1.91-.067.131-.143.24-.233.325-.053.063-.151.156-.272.288l-7.105 8.097L37.32 46.06c.068.093.128.194.189.28.03.093.06.155.083.186.188.28.279.42.279.42h.045v.093c.09.093.136.163.136.186.083.062.143.14.173.233l.317.419c.09.124.272.295.543.512.302.31.687.56 1.14.753.452.241 1.01.358 1.666.358h.09v1.265h-9.767V49.5h.626c.663 0 1.093-.086 1.275-.272a.95.95 0 00.264-.66c0-.085-.03-.256-.091-.512a1.11 1.11 0 01-.128-.319 5.004 5.004 0 01-.143-.326c0-.03-.016-.062-.046-.093l-.045-.047c0-.03-.015-.054-.045-.085a.155.155 0 01-.046-.109 2.728 2.728 0 00-.173-.465 1.75 1.75 0 01-.234-.365L26.232 33.81l-4.119 4.658v7.454c0 .062.046.372.136.931.09.621.377 1.196.86 1.716.452.59 1.252.9 2.398.932v1.265H15.091v-1.265c1.237 0 2.082-.342 2.542-1.017a4.825 4.825 0 00.807-2.229c0-.1.015-.194.053-.287v-23.15a.727.727 0 01-.053-.272 5.74 5.74 0 00-.762-2.244c-.52-.714-1.38-1.063-2.587-1.063v-1.266h10.416zm32.079 28.702v-8.206c-1.833.792-3.794 1.847-5.883 3.167-1.81 1.165-2.715 2.67-2.715 4.51.052.8.354 1.453.905 1.973.505.489 1.267.737 2.262.737.445 0 1.245-.217 2.4-.652.783-.248 1.794-.76 3.031-1.53zm-7.24-13.237c0 .83-.182 1.39-.544 1.677a2.51 2.51 0 01-1.5.466c-.672-.194-1.095-.427-1.26-.699-.332-.458-.498-.862-.498-1.211 0-1.584.633-2.795 1.9-3.633 1.607-1.087 3.493-1.63 5.657-1.63.694 0 1.117.015 1.26.046.528 0 1.147.109 1.856.326.995.318 1.847.807 2.541 1.49.996 1.025 1.494 2.268 1.494 3.72V46.9c0 .908.15 1.607.453 2.096.324.528.957.792 1.9.792l-.045.978h-5.74l-.06-2.197c-1.758 1.04-3.266 1.739-4.518 2.104-.506.186-1.132.31-1.871.396-.732.077-1.2.116-1.388.116-1.297 0-2.368-.295-3.22-.885-1.064-.76-1.682-1.801-1.856-3.12-.03-.25-.045-.684-.045-1.305 0-1.84.814-3.362 2.444-4.557 1.025-.745 2.745-1.63 5.166-2.663.257-.109 1.124-.396 2.61-.862 1.486-.466 2.338-.722 2.55-.76v-.979c0-2.577-.076-4.076-.22-4.48-.572-1.055-1.629-1.583-3.175-1.583-.807 0-1.606.202-2.398.606-.619.31-1.026.667-1.215 1.07-.188.405-.279.995-.279 1.771zm21.232-3.308l.045-.977h15.75v.978h-.453c-.03 0-.31.078-.837.248-.528.163-.838.334-.928.497-.332.536-.498 1.242-.498 2.143v13.927c0 .816.15 1.468.453 1.957.248.427.7.698 1.357.792.294.062.581.093.86.093v.978H78.32v-.978h.408c.86 0 1.448-.233 1.764-.691.363-.474.543-1.188.543-2.15v-13.47c0-.862-.12-1.53-.361-1.995-.317-.435-.815-.652-1.494-.652h-1.63c-.512 0-.874.108-1.093.326-.294.318-.475.574-.535.792-.053.28-.106.55-.151.807-.046.264-.09.473-.113.636l-.136 1.157c-.053.458-.083.722-.098.8a10.64 10.64 0 00-.181 1.995c-.06.474-.106.97-.144 1.483-.045.52-.067.838-.083.94l-.18 1.218c-.06.404-.106.807-.129 1.203-.098.598-.219 1.312-.37 2.151a26.85 26.85 0 01-.497 2.228c-.362 1.374-.86 2.492-1.494 3.354-.633.846-1.598 1.265-2.889 1.265-.904-.17-1.417-.303-1.546-.373-.64-.162-1.124-.504-1.448-1.024-.58-.854-.867-1.63-.867-2.33 0-.962.15-1.73.452-2.29.181-.333.46-.597.838-.807a2.373 2.373 0 011.123-.302c.272 0 .634.186 1.079.558.362.38.543.746.543 1.08.03.147.045.411.045.784 0 .256-.135.55-.407.885-.015.046-.068.1-.151.163-.083.07-.158.14-.219.21-.007.023-.075.108-.18.263a2.907 2.907 0 00-.265.42c-.06.131-.09.271-.09.434 0 .17.166.373.498.606.12.093.347.147.679.147.12 0 .316-.039.588-.108.181-.032.43-.163.732-.404.264-.28.475-.598.626-.932a8.349 8.349 0 00.678-1.73c.091-.343.189-.793.272-1.352.022-.14.136-.73.332-1.762.203-1.04.317-1.677.347-1.918.06-.434.158-1.087.271-1.948.151-1.157.287-2.306.408-3.447.12-1.343.18-2.26.18-2.756 0-.552-.045-.97-.135-1.258-.083-.372-.317-.792-.68-1.25-.346-.411-.874-.613-1.583-.613zm52.398 14.767l5.061-15.744h7.339v.978c-.769 0-1.312.078-1.621.24-.302.086-.559.303-.777.645-.211.303-.317.769-.317 1.397v15.139c0 .629.121 1.095.362 1.397.551.56 1.35.839 2.399.839v.978h-9.006v-.978c1.093-.04 1.863-.319 2.308-.839.301-.31.452-.784.452-1.405v-17.04l-6.516 20.262h-1.268l-7.15-20.03V47.32c0 .24.045.512.136.8.181.52.452.923.814 1.203.377.342.935.512 1.682.512v.932h-6.796v-.932c.822 0 1.471-.372 1.946-1.117.302-.497.453-1.196.453-2.104V33.166c0-.993-.166-1.739-.498-2.243-.369-.528-1.003-.792-1.901-.792v-.978h7.286l5.612 15.744zm-24.89 4.192c1.184 0 2.255-.605 3.213-1.817 1.026-1.18 1.584-3.183 1.675-6.008h-9.685c.12 2.453.663 4.378 1.629 5.768.513.737 1.003 1.265 1.47 1.583.468.319 1.034.474 1.698.474zm4.842-11.366c-.022-.776-.234-1.645-.641-2.616a8.746 8.746 0 00-1.614-2.562c-1.154-1.265-2.708-1.902-4.661-1.902-1.087 0-2.158.264-3.221.784-.596.35-1.35.924-2.263 1.731l-.671-.978c.92-.923 1.629-1.591 2.134-2.003a5.808 5.808 0 011.622-.931c1.2-.559 2.557-.838 4.066-.838 2.662.046 4.947 1.304 6.841 3.772 1.682 2.205 2.527 4.798 2.527 7.78 0 3.09-.891 5.666-2.671 7.732a8.42 8.42 0 01-2.934 2.282c-1.124.528-2.27.792-3.447.792-1.252 0-2.481-.287-3.688-.87-1.207-.582-2.165-1.413-2.874-2.484-1.478-2.298-2.232-4.906-2.263-7.825h13.796c.068 0 .105-.14.105-.42 0-.667-.052-1.149-.143-1.444z" fill="#fff"/><path d="M25.507 17.973v1.266c-1.146.054-1.946.35-2.398.885-.483.59-.77 1.18-.86 1.762-.06.404-.09.722-.09.932v.42c-.03.185-.046.333-.046.418v12.111L33.02 23.385v-.055l.045-.046a.891.891 0 00.144-.187.36.36 0 01.128-.132c.06-.1.21-.302.452-.613l.045-.046.046-.047.045-.047c.03-.03.045-.062.045-.085.12-.124.204-.217.234-.287 0-.063.03-.125.083-.186.03-.055.06-.117.09-.18.098-.186.144-.31.144-.372.06-.194.09-.318.09-.38v-.132c-.03-.031-.045-.078-.045-.14 0 0-.045-.109-.143-.326-.06-.163-.272-.334-.634-.512-.354-.218-.807-.334-1.357-.334h-.498a.337.337 0 00-.174-.04v-1.265h10.002v1.266c-1.298.186-2.369.575-3.221 1.157-.716.496-1.425 1.133-2.12 1.91-.067.131-.143.24-.233.325-.053.063-.151.156-.272.288l-7.105 8.097L37.32 46.06c.068.093.128.194.189.28.03.093.06.155.083.186.188.28.279.42.279.42h.045v.093c.09.093.136.163.136.186.083.062.143.14.173.233l.317.419c.09.124.272.295.543.512.302.31.687.56 1.14.753.452.241 1.01.358 1.666.358h.09v1.265h-9.767V49.5h.626c.663 0 1.093-.086 1.275-.272a.95.95 0 00.264-.66c0-.085-.03-.256-.091-.512a1.11 1.11 0 01-.128-.319 5.004 5.004 0 01-.143-.326c0-.03-.016-.062-.046-.093l-.045-.047c0-.03-.015-.054-.045-.085a.155.155 0 01-.046-.109 2.728 2.728 0 00-.173-.465 1.75 1.75 0 01-.234-.365L26.232 33.81l-4.119 4.658v7.454c0 .062.046.372.136.931.09.621.377 1.196.86 1.716.452.59 1.252.9 2.398.932v1.265H15.091v-1.265c1.237 0 2.082-.342 2.542-1.017a4.825 4.825 0 00.807-2.229c0-.1.015-.194.053-.287v-23.15a.727.727 0 01-.053-.272 5.74 5.74 0 00-.762-2.244c-.52-.714-1.38-1.063-2.587-1.063v-1.266h10.416v0zm32.079 28.702v-8.206c-1.833.792-3.794 1.847-5.883 3.167-1.81 1.165-2.715 2.67-2.715 4.51.052.8.354 1.453.905 1.973.505.489 1.267.737 2.262.737.445 0 1.245-.217 2.4-.652.783-.248 1.794-.76 3.031-1.53v0zm-7.24-13.237c0 .83-.182 1.39-.544 1.677a2.51 2.51 0 01-1.5.466c-.672-.194-1.095-.427-1.26-.699-.332-.458-.498-.862-.498-1.211 0-1.584.633-2.795 1.9-3.633 1.607-1.087 3.493-1.63 5.657-1.63.694 0 1.117.015 1.26.046.528 0 1.147.109 1.856.326.995.318 1.847.807 2.541 1.49.996 1.025 1.494 2.268 1.494 3.72V46.9c0 .908.15 1.607.453 2.096.324.528.957.792 1.9.792l-.045.978h-5.74l-.06-2.197c-1.758 1.04-3.266 1.739-4.518 2.104-.506.186-1.132.31-1.871.396-.732.077-1.2.116-1.388.116-1.297 0-2.368-.295-3.22-.885-1.064-.76-1.682-1.801-1.856-3.12-.03-.25-.045-.684-.045-1.305 0-1.84.814-3.362 2.444-4.557 1.025-.745 2.745-1.63 5.166-2.663.257-.109 1.124-.396 2.61-.862 1.486-.465 2.338-.722 2.55-.76v-.979c0-2.577-.076-4.076-.22-4.48-.572-1.055-1.629-1.583-3.175-1.583-.807 0-1.606.202-2.398.606-.619.31-1.026.667-1.215 1.07-.188.405-.279.995-.279 1.771v0zm21.232-3.308l.045-.977h15.75v.978h-.453c-.03 0-.31.078-.837.248-.528.163-.838.334-.928.497-.332.536-.498 1.242-.498 2.143v13.927c0 .816.15 1.468.453 1.957.248.427.7.698 1.357.792.294.062.581.093.86.093v.978H78.32v-.978h.408c.86 0 1.448-.233 1.764-.691.363-.474.543-1.188.543-2.15v-13.47c0-.862-.12-1.53-.361-1.995-.317-.435-.815-.652-1.494-.652h-1.63c-.512 0-.874.108-1.093.326-.294.318-.475.574-.535.792-.053.28-.106.55-.151.807-.046.264-.09.473-.113.636l-.136 1.157c-.053.458-.083.722-.098.8a10.64 10.64 0 00-.181 1.995c-.06.474-.106.97-.144 1.483-.045.52-.067.838-.083.94l-.18 1.218c-.06.404-.106.807-.129 1.203-.098.598-.219 1.312-.37 2.151a26.85 26.85 0 01-.497 2.228c-.362 1.374-.86 2.492-1.494 3.354-.633.846-1.598 1.265-2.889 1.265-.904-.17-1.417-.303-1.546-.373-.64-.162-1.124-.504-1.448-1.024-.58-.854-.867-1.63-.867-2.33 0-.962.15-1.73.452-2.29.181-.333.46-.597.838-.807a2.373 2.373 0 011.123-.302c.272 0 .634.186 1.079.558.362.38.543.746.543 1.08.03.147.045.411.045.784 0 .256-.135.55-.407.885-.015.046-.068.1-.151.163-.083.07-.158.14-.219.21-.007.023-.075.108-.18.263a2.907 2.907 0 00-.265.42c-.06.131-.09.271-.09.434 0 .17.166.373.498.606.12.093.347.147.679.147.12 0 .316-.039.588-.108.181-.032.43-.163.732-.404.264-.28.475-.598.626-.932a8.349 8.349 0 00.678-1.73c.091-.343.189-.793.272-1.352.022-.14.136-.73.332-1.762.203-1.04.317-1.677.347-1.918.06-.434.158-1.087.271-1.948.151-1.157.287-2.306.408-3.447.12-1.343.18-2.26.18-2.756 0-.552-.045-.97-.135-1.258-.083-.372-.317-.792-.68-1.25-.346-.411-.874-.613-1.583-.613v0zm52.398 14.767l5.061-15.744h7.339v.978c-.769 0-1.312.078-1.621.24-.302.086-.559.303-.777.645-.211.303-.317.769-.317 1.397v15.139c0 .629.121 1.095.362 1.397.551.56 1.35.839 2.399.839v.978h-9.006v-.978c1.093-.04 1.863-.319 2.308-.839.301-.31.452-.784.452-1.405v-17.04l-6.516 20.262h-1.268l-7.15-20.03V47.32c0 .24.045.512.136.8.181.52.452.923.814 1.203.377.342.935.512 1.682.512v.932h-6.796v-.932c.822 0 1.471-.372 1.946-1.117.302-.497.453-1.196.453-2.104V33.166c0-.993-.166-1.739-.498-2.243-.369-.528-1.003-.792-1.901-.792v-.978h7.286l5.612 15.744v0zm-24.89 4.192c1.184 0 2.255-.605 3.213-1.817 1.026-1.18 1.584-3.183 1.675-6.008h-9.685c.12 2.453.663 4.378 1.629 5.768.513.737 1.003 1.265 1.47 1.583.468.319 1.034.474 1.698.474v0zm4.842-11.366c-.022-.776-.234-1.645-.641-2.616a8.746 8.746 0 00-1.614-2.562c-1.154-1.265-2.708-1.902-4.661-1.902-1.087 0-2.158.264-3.221.784-.596.35-1.35.924-2.263 1.731l-.671-.978c.92-.923 1.629-1.591 2.134-2.003a5.808 5.808 0 011.622-.931c1.2-.559 2.557-.838 4.066-.838 2.662.046 4.947 1.304 6.841 3.772 1.682 2.205 2.527 4.798 2.527 7.78 0 3.09-.891 5.666-2.671 7.732a8.42 8.42 0 01-2.934 2.282c-1.124.528-2.27.792-3.447.792-1.252 0-2.481-.287-3.688-.87-1.207-.582-2.165-1.413-2.874-2.484-1.478-2.298-2.232-4.906-2.263-7.825h13.796c.068 0 .105-.14.105-.42 0-.667-.052-1.149-.143-1.444v0z" stroke="#fff" stroke-width=".076" stroke-miterlimit="22.926"/><path fill-rule="evenodd" clip-rule="evenodd" d="M144.224 46.101c-1.528-.75-.64-1.855-.041-1.959h6.874c.578.313 1.181 1.384-.289 1.917v2.2c0 .08.052.148.126.168 1.044.285 2.984.847 3.302 1.07.392.265 1.197 1.072 1.279 2.189.124 1 .38 3.08.413 3.397.083.833.211 2.596.062 2.98-.186.479-.619.791-1.3.937h-14.41c-.42-.056-1.26-.446-1.26-1.563.11-1.653.372-5.11.537-5.71.206-.75.186-1.77 2.023-2.5.812-.25 2.622-.813 2.684-.834.023-.007.02-.028.02-.053l-.02-2.239z" fill="#fff"/><path fill-rule="evenodd" clip-rule="evenodd" d="M142.425 57.743h7.474c.406 0 .797-.123 1.137-.335l-.639-.374a1.817 1.817 0 01-.711.147h-6.962c-.977 0-1.698-.822-1.603-1.828l.336-3.534.003-.03-.509-.299-.006.053-.378 4.086c-.108 1.163.728 2.114 1.858 2.114z" fill="url(#paint0_linear)"/><defs><linearGradient id="paint0_linear" x1="141.303" y1="56.815" x2="144.44" y2="54.399" gradientUnits="userSpaceOnUse"><stop stop-color="#FEFEFE"/><stop offset=".198" stop-color="#DEDEDE"/><stop offset=".922" stop-color="#F2F2F2"/></linearGradient></defs></svg>