<svg width="33" height="20" fill="none" xmlns="http://www.w3.org/2000/svg"><path d="M12.023 2.14h8.75v15.723h-8.75V2.14z" fill="#7673C0"/><path d="M12.58 10c0-3.194 1.5-6.028 3.805-7.861A9.939 9.939 0 0010.22 0c-5.528 0-10 4.472-10 10s4.472 10 10 10a9.939 9.939 0 006.166-2.139A10.027 10.027 0 0112.58 10z" fill="#EB001B"/><path d="M32.581 10c0 5.528-4.472 10-10 10a9.939 9.939 0 01-6.166-2.139A10.026 10.026 0 0020.22 10c0-3.194-1.5-6.028-3.833-7.861C18.109.806 20.247 0 22.58 0c5.528 0 10 4.472 10 10z" fill="#00A1DF"/></svg>