<svg width="34" height="20" viewBox="0 0 34 20" fill="none" xmlns="http://www.w3.org/2000/svg">
<path d="M12.6641 2.14062H21.4141V17.8628H12.6641V2.14062Z" fill="#FF5F00"/>
<path d="M13.2205 10C13.2205 6.80556 14.7205 3.97222 17.026 2.13889C15.3316 0.805555 13.1927 0 10.8594 0C5.3316 0 0.859375 4.47222 0.859375 10C0.859375 15.5278 5.3316 20 10.8594 20C13.1927 20 15.3316 19.1944 17.026 17.8611C14.7205 16.0278 13.2205 13.1944 13.2205 10Z" fill="#EB001B"/>
<path d="M33.2218 10C33.2218 15.5278 28.7496 20 23.2218 20C20.8885 20 18.7496 19.1944 17.0551 17.8611C19.3607 16.0278 20.8607 13.1944 20.8607 10C20.8607 6.80556 19.3607 3.97222 17.0273 2.13889C18.7496 0.805555 20.8885 0 23.2218 0C28.7496 0 33.2218 4.47222 33.2218 10Z" fill="#F79E1B"/>
</svg>
