<svg width="34" height="20" fill="none" xmlns="http://www.w3.org/2000/svg"><path d="M12.664 2.14h8.75v15.723h-8.75V2.14z" fill="#FF5F00"/><path d="M13.22 10c0-3.194 1.5-6.028 3.806-7.861A9.938 9.938 0 0010.859 0c-5.527 0-10 4.472-10 10s4.473 10 10 10a9.939 9.939 0 006.167-2.139A10.027 10.027 0 0113.22 10z" fill="#EB001B"/><path d="M33.222 10c0 5.528-4.472 10-10 10a9.94 9.94 0 01-6.167-2.139A10.026 10.026 0 0020.861 10c0-3.194-1.5-6.028-3.834-7.861C18.75.806 20.888 0 23.222 0c5.528 0 10 4.472 10 10z" fill="#F79E1B"/></svg>