<svg width="71" height="20" fill="none" xmlns="http://www.w3.org/2000/svg"><path d="M39.464 2.118l-4.477 9.705h-.456V0h-6.38v19.973h5.388a3.63 3.63 0 003.297-2.118l4.478-9.705h.455v11.823h6.354V0h-5.388a3.62 3.62 0 00-3.271 2.118zm-23.86.51l-2.655 9.195h-.456L9.84 2.627A3.643 3.643 0 006.354 0H0v19.973h6.354V8.177h.456l3.646 11.796h4.53L18.634 8.15h.456v11.823h6.353V0h-6.354c-1.608 0-3.056 1.072-3.485 2.627zm35.28 6.46V20h6.355v-6.38h6.836c2.976 0 5.47-1.904 6.408-4.532H50.885z" fill="#319B42"/><path d="M64.048 0H49.973c.858 4.638 4.933 8.177 9.812 8.177h10.938c.08-.429.134-.885.134-1.367A6.82 6.82 0 0064.047 0z" fill="url(#paint0_linear)"/><defs><linearGradient id="paint0_linear" x1="49.964" y1="4.088" x2="70.858" y2="4.088" gradientUnits="userSpaceOnUse"><stop stop-color="#00A3E1"/><stop offset=".304" stop-color="#009ADD"/><stop offset=".799" stop-color="#0082D4"/><stop offset="1" stop-color="#0076CF"/></linearGradient></defs></svg>