<svg viewBox="0 0 11 11" fill="none" xmlns="http://www.w3.org/2000/svg"><g clip-path="url(#clip0)" fill="#515151"><path d="M10.849.155a.516.516 0 00-.73 0L.155 10.12a.516.516 0 10.73.73L10.85.885a.516.516 0 000-.73zM2.452.004A2.455 2.455 0 000 2.456C0 3.808 1.1 4.91 2.452 4.91c1.353 0 2.453-1.1 2.453-2.453 0-1.352-1.1-2.452-2.453-2.452zm0 3.872c-.783 0-1.42-.637-1.42-1.42 0-.783.638-1.42 1.42-1.42.783 0 1.42.637 1.42 1.42 0 .783-.637 1.42-1.42 1.42zm6.096 2.218a2.455 2.455 0 00-2.453 2.452c0 1.352 1.1 2.452 2.453 2.452C9.9 10.998 11 9.898 11 8.546c0-1.352-1.1-2.452-2.452-2.452zm0 3.872c-.783 0-1.42-.637-1.42-1.42 0-.783.637-1.42 1.42-1.42.782 0 1.42.637 1.42 1.42 0 .783-.637 1.42-1.42 1.42z"/></g><defs><clipPath id="clip0"><path fill="#fff" d="M0 0h11v11H0z"/></clipPath></defs></svg>