<svg width="17" height="19" fill="none" xmlns="http://www.w3.org/2000/svg"><path d="M7.35 7.225c-.8.783-1.8 1.175-3 1.175S2.142 8 1.325 7.2c-.8-.8-1.2-1.775-1.2-2.925s.4-2.125 1.2-2.925C2.142.55 3.15.15 4.35.15s2.2.4 3 1.2c.8.783 1.2 1.758 1.2 2.925 0 1.167-.4 2.15-1.2 2.95zM1.9 15.35L13.3 2.675l1.525.85L3.4 16.225l-1.5-.875zm1.3-9.925c.3.3.675.45 1.125.45.45 0 .825-.15 1.125-.45.3-.317.45-.7.45-1.15 0-.45-.15-.825-.45-1.125-.3-.3-.675-.45-1.125-.45-.45 0-.825.15-1.125.45-.283.3-.425.675-.425 1.125 0 .45.142.833.425 1.15zM15.8 17.1c-.8.8-1.8 1.2-3 1.2s-2.2-.4-3-1.2c-.8-.8-1.2-1.775-1.2-2.925S9 12.05 9.8 11.25c.8-.8 1.8-1.2 3-1.2s2.2.4 3 1.2c.8.8 1.2 1.775 1.2 2.925s-.4 2.125-1.2 2.925zm-4.125-1.775c.3.3.675.45 1.125.45.45 0 .817-.158 1.1-.475.3-.317.45-.692.45-1.125 0-.45-.15-.825-.45-1.125-.283-.317-.65-.475-1.1-.475-.45 0-.825.158-1.125.475-.283.3-.425.675-.425 1.125 0 .45.142.833.425 1.15z" fill="#000"/></svg>