<svg width="24" height="18" fill="none" xmlns="http://www.w3.org/2000/svg"><path d="M23.356 14.18l-5.368-5.37a6.246 6.246 0 00-1.293-6.929 6.229 6.229 0 00-8.816 0 6.243 6.243 0 000 8.817 6.234 6.234 0 007.021 1.255l5.34 5.341a2.201 2.201 0 003.116 0 2.206 2.206 0 000-3.115zM8.874 9.705a4.835 4.835 0 010-6.828 4.823 4.823 0 016.826 0 4.835 4.835 0 010 6.828 4.823 4.823 0 01-6.826 0zm13.487 6.596a.796.796 0 01-1.126 0l-5.102-5.103c.42-.33.793-.71 1.118-1.136l5.11 5.112a.8.8 0 010 1.127zM.703 8.48h2.999a.703.703 0 000-1.406H.703a.703.703 0 000 1.407zm0 3h4.123a.703.703 0 100-1.406H.703a.703.703 0 000 1.406zm0 3h7.121a.703.703 0 100-1.406H.704a.703.703 0 000 1.406zm15.367 1.594H.703a.703.703 0 000 1.406H16.07a.703.703 0 100-1.406z" fill="#262626"/></svg>