<svg width="20" height="22" viewBox="0 0 20 22" fill="none" xmlns="http://www.w3.org/2000/svg">
<path d="M9.62891 0C6.53788 0 4.20703 2.16095 4.20703 5.02639C4.20703 7.97575 6.63927 10.3749 9.62891 10.3749C12.6186 10.3749 15.0508 7.97575 15.0508 5.02663C15.0508 2.16095 12.72 0 9.62891 0ZM9.62891 8.76367C7.50137 8.76367 6.16482 6.77815 6.16482 5.02639C6.16482 2.92214 7.87622 1.75273 9.62891 1.75273C11.549 1.75273 13.1758 3.48356 13.1758 5.02639C13.1758 6.98902 11.7565 8.76367 9.62891 8.76367Z" fill="#262626"/>
<path d="M10 11.6641C3.55144 11.6641 0 14.7147 0 20.2542C0 20.6868 0.350646 21.0375 0.783285 21.0375H19.2167C19.6494 21.0375 20 20.6868 20 20.2542C20 14.715 16.4486 11.6641 10 11.6641ZM1.75273 19.4709C2.10328 15.4297 4.5422 13.677 9.81531 13.677C15.0884 13.677 17.7599 15.3291 18.0683 19.4709H1.75273Z" fill="#262626"/>
</svg>
