<svg width="20" height="22" fill="none" xmlns="http://www.w3.org/2000/svg"><path d="M9.629 0C6.538 0 4.207 2.161 4.207 5.026c0 2.95 2.432 5.349 5.422 5.349 2.99 0 5.422-2.4 5.422-5.348C15.05 2.16 12.72 0 9.629 0zm0 8.764c-2.128 0-3.464-1.986-3.464-3.738 0-2.104 1.711-3.273 3.464-3.273 1.92 0 3.547 1.73 3.547 3.273 0 1.963-1.42 3.738-3.547 3.738zm.371 2.9c-6.449 0-10 3.05-10 8.59 0 .433.35.784.783.784h18.434a.784.784 0 00.783-.784c0-5.539-3.551-8.59-10-8.59zm-8.247 7.807c.35-4.041 2.79-5.794 8.062-5.794 5.273 0 7.945 1.652 8.253 5.794H1.753z" fill="#262626"/></svg>