<svg width="63" height="20" fill="none" xmlns="http://www.w3.org/2000/svg"><path d="M31.165.365l-4.202 19.306h-5.095L26.108.366h5.057zM52.587 12.81l2.677-7.263 1.525 7.263h-4.202zm5.69 6.862H63L58.872.365H54.52a2.3 2.3 0 00-2.157 1.423L44.74 19.672h5.355l1.041-2.884h6.509l.632 2.884zM45 13.358c.037-5.11-7.178-5.365-7.14-7.665 0-.693.669-1.423 2.157-1.605.743-.11 2.752-.183 5.02.875L45.93.877A12.975 12.975 0 0041.17 0c-5.021 0-8.554 2.628-8.592 6.387-.037 2.774 2.53 4.343 4.463 5.255 1.971.95 2.64 1.57 2.64 2.41 0 1.313-1.598 1.86-3.049 1.897-2.566.036-4.053-.694-5.244-1.204l-.93 4.233c1.19.547 3.385.985 5.654 1.022 5.355-.037 8.85-2.628 8.888-6.642zM23.913.365l-8.256 19.307h-5.355L6.21 4.234c-.26-.95-.447-1.278-1.19-1.68C3.793 1.899 1.785 1.278 0 .913L.112.365h8.665c1.116 0 2.083.73 2.343 1.97l2.157 11.169L18.557.365h5.356z" fill="#2A2A6C"/></svg>