<svg width="25" height="15" fill="none" xmlns="http://www.w3.org/2000/svg"><path fill-rule="evenodd" clip-rule="evenodd" d="M12.327 14.136h1.422s.43-.046.648-.277c.202-.21.196-.608.196-.608s-.028-1.857.857-2.131c.873-.27 1.994 1.795 3.182 2.59.898.6 1.58.469 1.58.469l3.177-.043s1.662-.1.874-1.372c-.064-.104-.459-.942-2.362-2.662-1.991-1.8-1.725-1.509.675-4.623 1.46-1.896 2.045-3.054 1.863-3.55-.175-.472-1.25-.348-1.25-.348l-3.576.022s-.265-.035-.462.08c-.192.112-.315.373-.315.373s-.566 1.468-1.321 2.716c-1.593 2.633-2.23 2.772-2.49 2.609-.605-.381-.454-1.531-.454-2.348 0-2.552.397-3.616-.774-3.892-.389-.091-.675-.152-1.67-.161-1.276-.013-2.356.003-2.967.295-.407.194-.72.627-.53.651.237.031.772.141 1.056.517.366.486.353 1.576.353 1.576s.21 3.005-.491 3.378c-.482.256-1.144-.267-2.564-2.656-.727-1.224-1.276-2.577-1.276-2.577s-.106-.252-.295-.388a1.507 1.507 0 00-.55-.216l-3.398.022s-.51.014-.698.23c-.167.192-.013.59-.013.59s2.66 6.062 5.673 9.117c2.763 2.8 5.9 2.617 5.9 2.617z" fill="#fff"/></svg>