<svg width="23" height="23" fill="none" xmlns="http://www.w3.org/2000/svg"><path fill-rule="evenodd" clip-rule="evenodd" d="M19.791 4.01A10.921 10.921 0 0012.034.808C5.99.809 1.072 5.704 1.07 11.72a10.856 10.856 0 001.463 5.456L.977 22.832l5.813-1.517a10.995 10.995 0 005.24 1.328h.005c6.043 0 10.963-4.896 10.965-10.913a10.82 10.82 0 00-3.209-7.72zM12.034 20.8h-.003a9.137 9.137 0 01-4.64-1.264l-.332-.197-3.45.9.921-3.347-.217-.343a9.016 9.016 0 01-1.393-4.827c.002-5.001 4.09-9.07 9.118-9.07 2.435 0 4.723.945 6.444 2.66a8.995 8.995 0 012.667 6.417c-.002 5.002-4.09 9.071-9.115 9.071zm5-6.793c-.274-.137-1.621-.797-1.872-.888-.251-.09-.434-.136-.617.137-.182.273-.707.887-.867 1.069-.16.182-.32.205-.594.068-.274-.136-1.157-.424-2.204-1.353-.814-.723-1.364-1.616-1.524-1.89-.16-.272-.001-.406.12-.556.297-.366.594-.75.685-.932.092-.182.046-.342-.023-.478-.068-.137-.616-1.479-.844-2.025-.223-.532-.448-.46-.617-.468-.16-.008-.342-.01-.525-.01s-.48.069-.73.342c-.252.273-.96.932-.96 2.275 0 1.342.982 2.638 1.12 2.82.136.182 1.931 2.937 4.68 4.118a15.71 15.71 0 001.562.574c.656.208 1.254.178 1.726.108.526-.078 1.62-.66 1.85-1.296.228-.637.228-1.183.159-1.297-.068-.114-.251-.182-.525-.318z" fill="#fff"/></svg>