<svg width="34" height="20" viewBox="0 0 34 20" fill="none" xmlns="http://www.w3.org/2000/svg">
<path d="M12.6641 2.14062H21.4141V17.8628H12.6641V2.14062Z" fill="#FF5F00"/>
<path d="M13.2195 10C13.2195 6.80556 14.7195 3.97222 17.0251 2.13889C15.3306 0.805555 13.1917 0 10.8584 0C5.33062 0 0.858398 4.47222 0.858398 10C0.858398 15.5278 5.33062 20 10.8584 20C13.1917 20 15.3306 19.1944 17.0251 17.8611C14.7195 16.0278 13.2195 13.1944 13.2195 10Z" fill="#EB001B"/>
<path d="M33.2198 10C33.2198 15.5278 28.7476 20 23.2198 20C20.8865 20 18.7476 19.1944 17.0532 17.8611C19.3587 16.0278 20.8587 13.1944 20.8587 10C20.8587 6.80556 19.3587 3.97222 17.0254 2.13889C18.7476 0.805555 20.8865 0 23.2198 0C28.7476 0 33.2198 4.47222 33.2198 10Z" fill="#F79E1B"/>
</svg>
