<svg width="36" height="32" viewBox="0 0 36 32" fill="none" xmlns="http://www.w3.org/2000/svg">
<path d="M34.5209 5.82623H6.37328L5.95487 1.30569C5.88644 0.566441 5.24761 0 4.48233 0H1.47846C0.661927 0 0 0.641957 0 1.43385C0 2.22575 0.661927 2.86771 1.47846 2.86771H3.13067C4.03358 12.6235 1.70002 -12.5916 4.83111 21.2408C4.95178 22.565 5.68953 24.0019 6.96044 24.9783C4.66904 27.8162 6.76268 32 10.49 32C13.5836 32 15.7656 29.0076 14.7047 26.1735H22.7965C21.737 29.004 23.9143 32 27.0113 32C29.4828 32 31.4936 30.0499 31.4936 27.6529C31.4936 25.2559 29.4828 23.3058 27.0113 23.3058H10.5C9.37694 23.3058 8.39827 22.6487 7.97586 21.6913L31.6036 20.3445C32.2486 20.3078 32.7944 19.8689 32.9512 19.261L35.9552 7.60782C36.1881 6.70422 35.4828 5.82623 34.5209 5.82623V5.82623ZM10.49 29.1323C9.64898 29.1323 8.96466 28.4686 8.96466 27.6529C8.96466 26.8372 9.64898 26.1735 10.49 26.1735C11.3311 26.1735 12.0154 26.8372 12.0154 27.6529C12.0154 28.4686 11.3311 29.1323 10.49 29.1323ZM27.0112 29.1323C26.1701 29.1323 25.4858 28.4686 25.4858 27.6529C25.4858 26.8372 26.1701 26.1735 27.0112 26.1735C27.8523 26.1735 28.5366 26.8372 28.5366 27.6529C28.5366 28.4686 27.8523 29.1323 27.0112 29.1323ZM30.3459 17.5436L7.57787 18.8412L6.6387 8.69387H32.6273L30.3459 17.5436Z" fill="#515151"/>
</svg>
