<svg width="30" height="26" viewBox="0 0 30 26" fill="none" xmlns="http://www.w3.org/2000/svg">
<path d="M13.7433 25.486C14.4396 26.1714 15.568 26.1713 16.264 25.486L27.4886 14.4346C30.8371 11.1377 30.8371 5.77341 27.4886 2.47652C25.8664 0.879442 23.7095 -0.000116982 21.4153 1.16699e-08C19.1212 0.000117005 16.9644 0.87991 15.3425 2.47723L15.0034 2.81113L14.6631 2.47606C11.3148 -0.820711 5.86637 -0.820828 2.51735 2.47641C-0.838918 5.78089 -0.839393 11.1298 2.51759 14.4347L13.7433 25.486ZM8.59036 3.50911C9.93215 3.50911 11.1936 4.02353 12.1424 4.95773L13.7434 6.53387C14.4391 7.21875 15.5682 7.21898 16.2643 6.53375L17.8635 4.95878C18.8122 4.02447 20.0738 3.50981 21.4157 3.50981C25.8576 3.50946 28.1347 8.83513 24.9682 11.9529L15.0038 21.7634L5.0385 11.9528C1.90492 8.86813 4.09573 3.50911 8.59036 3.50911Z" fill="#515151"/>
</svg>
