<svg width="24" height="24" viewBox="0 0 24 24" fill="none" xmlns="http://www.w3.org/2000/svg">
<g clip-path="url(#clip0)">
<path d="M23.3559 17.1798L17.9885 11.8111C18.9956 9.52467 18.5647 6.75241 16.695 4.88224C14.259 2.44567 10.3159 2.44534 7.87961 4.88224C5.44931 7.3131 5.44931 11.2684 7.87961 13.6993C9.81085 15.6309 12.6411 15.9987 14.9005 14.9542L20.2405 20.2954C21.1014 21.1566 22.4951 21.1567 23.3561 20.2952C24.2147 19.4363 24.2146 18.0387 23.3559 17.1798ZM8.87411 12.705C6.99194 10.8224 6.99194 7.75919 8.87411 5.87655C10.7604 3.98975 13.8138 3.98942 15.7004 5.87655C17.5826 7.75919 17.5826 10.8224 15.7004 12.705C13.8141 14.5918 10.7607 14.5921 8.87411 12.705ZM22.3614 19.3011C22.0502 19.6125 21.5463 19.6126 21.235 19.3011L16.1332 14.1981C16.5525 13.868 16.9263 13.4889 17.2508 13.0623L22.3614 18.174C22.672 18.4848 22.6721 18.9903 22.3614 19.3011Z" fill="white"/>
<path d="M0.703157 11.4805H3.70151C4.08984 11.4805 4.40467 11.1657 4.40467 10.7774C4.40467 10.389 4.08984 10.0742 3.70151 10.0742H0.703157C0.314827 10.0742 0 10.389 0 10.7774C0 11.1657 0.314827 11.4805 0.703157 11.4805Z" fill="white"/>
<path d="M0.703157 14.4805H4.8259C5.21423 14.4805 5.52906 14.1657 5.52906 13.7774C5.52906 13.389 5.21423 13.0742 4.8259 13.0742H0.703157C0.314827 13.0742 0 13.389 0 13.7774C0 14.1657 0.314827 14.4805 0.703157 14.4805Z" fill="white"/>
<path d="M0.703157 17.4805H7.8243C8.21263 17.4805 8.52746 17.1657 8.52746 16.7774C8.52746 16.389 8.21263 16.0742 7.8243 16.0742H0.703157C0.314827 16.0742 0 16.389 0 16.7774C0 17.1657 0.314827 17.4805 0.703157 17.4805Z" fill="white"/>
<path d="M16.0699 19.0742H0.703157C0.314827 19.0742 0 19.389 0 19.7774C0 20.1657 0.314827 20.4805 0.703157 20.4805H16.0699C16.4582 20.4805 16.7731 20.1657 16.7731 19.7774C16.7731 19.389 16.4582 19.0742 16.0699 19.0742Z" fill="white"/>
</g>
<defs>
<clipPath id="clip0">
<rect width="24" height="24" fill="white"/>
</clipPath>
</defs>
</svg>
