<svg width="71" height="20" viewBox="0 0 71 20" fill="none" xmlns="http://www.w3.org/2000/svg">
<path d="M39.4638 2.11796L34.9866 11.8231H34.5308V0H28.1501V19.9732H33.5389C34.9598 19.9732 36.2467 19.1421 36.8365 17.8552L41.3137 8.15013H41.7694V19.9732H48.1233V0H42.7346C41.3405 0 40.0536 0.831099 39.4638 2.11796ZM15.6032 2.62735L12.9491 11.8231H12.4933L9.83914 2.62735C9.38338 1.07239 7.96247 0 6.35389 0H0V19.9732H6.35389V8.17694H6.80965L10.4558 19.9732H14.9866L18.6327 8.15013H19.0885V19.9732H25.4424V0H19.0885C17.4799 0 16.0322 1.07239 15.6032 2.62735ZM50.8847 9.08847V20H57.2386V13.6193H64.0751C67.0509 13.6193 69.5442 11.7158 70.4826 9.08847H50.8847Z" fill="#319B42"/>
<path d="M64.0487 0H49.9736C50.8315 4.63807 54.9066 8.17694 59.786 8.17694H70.7243C70.8047 7.74799 70.8583 7.29222 70.8583 6.80965C70.8583 3.0563 67.802 0 64.0487 0Z" fill="url(#paint0_linear)"/>
<defs>
<linearGradient id="paint0_linear" x1="49.9648" y1="4.08794" x2="70.8592" y2="4.08794" gradientUnits="userSpaceOnUse">
<stop stop-color="#00A3E1"/>
<stop offset="0.304" stop-color="#009ADD"/>
<stop offset="0.799" stop-color="#0082D4"/>
<stop offset="1" stop-color="#0076CF"/>
</linearGradient>
</defs>
</svg>
