<svg width="20" height="15" viewBox="0 0 20 15" fill="none" xmlns="http://www.w3.org/2000/svg">
<path d="M13.2578 7.60266L20.0003 11.8652V3.16016L13.2578 7.60266Z" fill="#848484"/>
<path d="M0 3.16016V11.8652L6.7425 7.60266L0 3.16016Z" fill="#848484"/>
<path d="M18.7496 0.625H1.24961C0.625859 0.625 0.130859 1.09 0.0371094 1.68875L9.99961 8.2525L19.9621 1.68875C19.8684 1.09 19.3734 0.625 18.7496 0.625Z" fill="#848484"/>
<path d="M12.1116 8.35672L10.3428 9.52172C10.2378 9.59047 10.1191 9.62422 9.99906 9.62422C9.87906 9.62422 9.76031 9.59047 9.65531 9.52172L7.88656 8.35547L0.0390625 13.3192C0.135313 13.913 0.627813 14.3742 1.24906 14.3742H18.7491C19.3703 14.3742 19.8628 13.913 19.9591 13.3192L12.1116 8.35672Z" fill="#848484"/>
</svg>
