<svg width="29" height="31" viewBox="0 0 29 31" fill="none" xmlns="http://www.w3.org/2000/svg">
<path d="M13.7335 0C9.32458 0 6 3.08226 6 7.16936C6 11.3762 9.46921 14.7982 13.7335 14.7982C17.9977 14.7982 21.4669 11.3762 21.4669 7.1697C21.4669 3.08226 18.1423 0 13.7335 0ZM13.7335 12.5C10.6989 12.5 8.79248 9.66797 8.79248 7.16936C8.79248 4.16797 11.2335 2.5 13.7335 2.5C16.4721 2.5 18.7925 4.96875 18.7925 7.16936C18.7925 9.96875 16.7681 12.5 13.7335 12.5Z" fill="#515151"/>
<path d="M14.2635 16.6328C5.06557 16.6328 0 20.9841 0 28.8853C0 29.5023 0.500142 30.0025 1.11723 30.0025H27.4096C28.0267 30.0025 28.5269 29.5023 28.5269 28.8853C28.5269 20.9845 23.4614 16.6328 14.2635 16.6328ZM2.5 27.768C3 22.0039 6.47874 19.5039 14 19.5039C21.5213 19.5039 25.3318 21.8604 25.7716 27.768H2.5Z" fill="#515151"/>
</svg>
