<svg width="12" height="13" viewBox="0 0 12 13" fill="none" xmlns="http://www.w3.org/2000/svg">
<path d="M11.8467 2.86863L10.4406 1.50414C10.2362 1.30581 9.90488 1.30581 9.70053 1.50414C9.49617 1.70247 9.49615 2.02399 9.70053 2.22229L10.0336 2.54546L9.35059 3.20821C8.46153 2.48848 7.38053 2.054 6.22741 1.95287V1.01562H6.69839C6.98742 1.01562 7.2217 0.788277 7.2217 0.507812C7.2217 0.227348 6.98742 0 6.69839 0H4.70981C4.42078 0 4.1865 0.227348 4.1865 0.507812C4.1865 0.788277 4.42078 1.01562 4.70981 1.01562H5.18079V1.95287C2.30979 2.20464 0 4.54411 0 7.46484C0 10.524 2.55117 13 5.7041 13C8.85658 13 11.4082 10.5244 11.4082 7.46484C11.4082 6.15695 10.9436 4.91852 10.0907 3.92636L10.7736 3.26361L11.1067 3.58678C11.311 3.78508 11.6424 3.78511 11.8467 3.58678C12.0511 3.38848 12.0511 3.06696 11.8467 2.86863ZM5.7041 11.9844C3.13597 11.9844 1.04662 9.95691 1.04662 7.46484C1.04662 4.97278 3.13597 2.94531 5.7041 2.94531C8.27223 2.94531 10.3616 4.97278 10.3616 7.46484C10.3616 9.95691 8.27225 11.9844 5.7041 11.9844ZM8.42331 7.46484C8.42331 7.74531 8.18902 7.97266 7.9 7.97266H5.70413C5.4151 7.97266 5.18081 7.74531 5.18081 7.46484V4.477C5.18081 4.19654 5.4151 3.96919 5.70413 3.96919C5.99315 3.96919 6.22744 4.19654 6.22744 4.477V6.95703H7.9C8.18902 6.95703 8.42331 7.18438 8.42331 7.46484Z" fill="#515151"/>
</svg>
