<svg width="730" height="733" viewBox="0 0 730 733" fill="none" xmlns="http://www.w3.org/2000/svg">
<path d="M72 584.5L65 574.5L64 572.5L78.5 563L94 553.5L89 605L79 593.5L72 584.5Z" fill="white"/>
<path d="M159 645.5C229.569 695.095 322.555 723.031 408.139 712.308C493.723 701.585 572.246 659.372 628.398 593.9C684.55 528.427 714.304 444.389 711.861 358.17C709.664 280.654 684.5 209.5 632.5 144.5M79.5001 564C26.9996 491 8.56612 396.341 22.6727 311.249C36.7792 226.157 79.8534 148.013 147.5 94.4999C217.5 39.1256 304.5 12.7733 389 19.0009C484 26.0023 548 68.9995 571 86.4995" stroke="white" stroke-width="36"/>
<g filter="url(#filter0_dii)">
<path d="M165.34 473.322C148.051 465.073 158.097 452.93 164.873 451.784H242.674C249.216 455.221 256.039 466.998 239.404 472.864V497.047C239.404 497.918 239.985 498.677 240.827 498.9C252.638 502.026 274.599 508.205 278.187 510.669C282.627 513.571 291.738 522.446 292.673 534.727C294.075 545.725 296.972 568.591 297.346 572.074C298.28 581.239 299.729 600.623 298.047 604.839C295.944 610.108 291.038 613.545 283.328 615.149H120.248C115.497 614.538 105.996 610.246 105.996 597.965C107.242 579.788 110.202 541.784 112.071 535.185C114.407 526.937 114.173 515.71 134.967 507.69C144.157 504.941 164.639 498.754 165.34 498.525C165.598 498.441 165.571 498.212 165.568 497.94L165.34 473.322Z" fill="white"/>
</g>
<path d="M581.5 72.0005L594.5 82.0005L603 89.0005L560.224 100.938V100.958L560.112 100.813V100.719L560 100.5L581.5 72.0005Z" fill="white"/>
<g filter="url(#filter1_d)">
<path d="M603.819 117C596.062 118.154 578.992 130.121 571.427 135.961C571.922 135.301 579.336 123.045 582.981 117C575.388 117.495 558.222 126.549 550.588 131.014C532.927 139.753 521.221 163.234 517.576 173.882C517.576 174.871 515.926 178.004 515.101 179.446C513.12 176.479 515.101 161.86 516.338 154.921C465.501 185.258 453.204 232.962 453.41 253.022C450.769 250.054 449.146 229.39 448.665 219.429C433.603 230.352 419.986 262.915 410.289 278.784C402.531 291.479 398.528 325.567 397.497 341.024H396.878C392.339 336.49 392.751 307.843 392.545 306.813C392.38 305.988 391.651 304.683 391.307 304.133C372.325 330.926 365.723 361.015 365.517 364.107C365.351 366.58 364.485 400.723 364.072 417.485C358.955 413.528 355.751 399.211 354.788 392.548C352.972 394.032 350.455 399.486 349.423 402.028C345.091 408.623 344.678 430.675 344.884 442.422C345.049 451.82 349.492 466.398 351.693 472.512L350.661 473.13C348.351 470.987 341.17 459.597 337.869 454.17C337.044 485.29 349.836 513.113 349.836 516.616V520.326L335.806 559.896L317.443 615.129L330.029 603.382L361.184 526.097C402.118 520.821 429.408 498.068 437.936 487.351C434.635 488.835 416.616 490.168 408.019 490.648C451.429 477.129 476.449 442.697 483.533 427.172C474.455 434.921 455.267 437.133 446.808 437.27C493.024 417.98 522.047 361.359 530.781 335.46C520.713 341.23 506.091 341.986 500.039 341.642C538.663 327.298 563.861 272.051 571.633 246.221C563.215 252.486 546.118 255.701 538.621 256.526V255.907C575.759 238.266 589.445 194.972 591.646 175.531C578.607 185.258 571.633 186.041 569.776 185.217C599.487 154.303 603.407 124.832 603.819 121.534C604.149 118.896 603.957 117.412 603.819 117Z" fill="white"/>
</g>
<path d="M114 631H117.5L169 630.5L172.5 633L170 638L150 661C148 659.5 142.6 655.4 137 651C130 645.5 125.5 641 124 640C122.8 639.2 116.833 633.667 114 631Z" fill="white"/>
<path d="M618.445 155.588L618.393 155.63L633 118L644 130.5L648 135L624 153.5L619 156L618.445 155.588Z" fill="white"/>
<defs>
<filter id="filter0_dii" x="104.996" y="450.784" width="197.824" height="167.365" filterUnits="userSpaceOnUse" color-interpolation-filters="sRGB">
<feFlood flood-opacity="0" result="BackgroundImageFix"/>
<feColorMatrix in="SourceAlpha" type="matrix" values="0 0 0 0 0 0 0 0 0 0 0 0 0 0 0 0 0 0 127 0" result="hardAlpha"/>
<feOffset dx="2" dy="1"/>
<feGaussianBlur stdDeviation="1"/>
<feColorMatrix type="matrix" values="0 0 0 0 0 0 0 0 0 0 0 0 0 0 0 0 0 0 0.1 0"/>
<feBlend mode="normal" in2="BackgroundImageFix" result="effect1_dropShadow"/>
<feBlend mode="normal" in="SourceGraphic" in2="effect1_dropShadow" result="shape"/>
<feColorMatrix in="SourceAlpha" type="matrix" values="0 0 0 0 0 0 0 0 0 0 0 0 0 0 0 0 0 0 127 0" result="hardAlpha"/>
<feOffset dx="3" dy="2"/>
<feGaussianBlur stdDeviation="2"/>
<feComposite in2="hardAlpha" operator="arithmetic" k2="-1" k3="1"/>
<feColorMatrix type="matrix" values="0 0 0 0 0.120833 0 0 0 0 0.120833 0 0 0 0 0.120833 0 0 0 0.1 0"/>
<feBlend mode="normal" in2="shape" result="effect2_innerShadow"/>
<feColorMatrix in="SourceAlpha" type="matrix" values="0 0 0 0 0 0 0 0 0 0 0 0 0 0 0 0 0 0 127 0" result="hardAlpha"/>
<feOffset dx="-1"/>
<feGaussianBlur stdDeviation="0.5"/>
<feComposite in2="hardAlpha" operator="arithmetic" k2="-1" k3="1"/>
<feColorMatrix type="matrix" values="0 0 0 0 1 0 0 0 0 1 0 0 0 0 1 0 0 0 0.05 0"/>
<feBlend mode="normal" in2="effect2_innerShadow" result="effect3_innerShadow"/>
</filter>
<filter id="filter1_d" x="314.443" y="117" width="290.558" height="504.129" filterUnits="userSpaceOnUse" color-interpolation-filters="sRGB">
<feFlood flood-opacity="0" result="BackgroundImageFix"/>
<feColorMatrix in="SourceAlpha" type="matrix" values="0 0 0 0 0 0 0 0 0 0 0 0 0 0 0 0 0 0 127 0" result="hardAlpha"/>
<feOffset dx="-1" dy="4"/>
<feGaussianBlur stdDeviation="1"/>
<feColorMatrix type="matrix" values="0 0 0 0 0 0 0 0 0 0 0 0 0 0 0 0 0 0 0.1 0"/>
<feBlend mode="normal" in2="BackgroundImageFix" result="effect1_dropShadow"/>
<feBlend mode="normal" in="SourceGraphic" in2="effect1_dropShadow" result="shape"/>
</filter>
</defs>
</svg>
