<svg width="521" height="528" viewBox="0 0 521 528" fill="none" xmlns="http://www.w3.org/2000/svg">
<g filter="url(#filter0_d)">
<path d="M519.81 0.998535C511.71 2.20363 493.886 14.6993 485.987 20.7966C486.504 20.1079 494.246 7.31095 498.052 0.998535C490.124 1.51501 472.199 10.9693 464.228 15.6319C445.787 24.7562 433.565 49.2741 429.759 60.3926C429.759 61.4255 428.035 64.6965 427.174 66.2029C425.105 63.1041 427.174 47.8395 428.466 40.5946C375.383 72.2714 362.543 122.082 362.759 143.028C360.001 139.929 358.306 118.352 357.804 107.951C342.077 119.356 327.858 153.357 317.733 169.927C309.632 183.183 305.453 218.777 304.376 234.916H303.729C298.99 230.182 299.421 200.27 299.205 199.194C299.033 198.333 298.272 196.97 297.913 196.396C278.093 224.372 271.199 255.79 270.983 259.018C270.811 261.601 269.906 297.251 269.475 314.754C264.133 310.622 260.786 295.673 259.781 288.715C257.885 290.265 255.257 295.96 254.179 298.614C249.655 305.501 249.224 328.527 249.44 340.793C249.612 350.606 254.251 365.827 256.549 372.211L255.472 372.857C253.059 370.619 245.562 358.726 242.115 353.059C241.253 385.554 254.61 414.605 254.61 418.263V422.137L239.961 463.454L220.787 521.127L233.929 508.861L266.459 428.162C309.201 422.653 337.696 398.896 346.601 387.705C343.154 389.255 324.339 390.646 315.363 391.149C360.69 377.032 386.815 341.08 394.212 324.868C384.733 332.96 364.697 335.269 355.865 335.413C404.122 315.271 434.426 256.149 443.547 229.106C433.033 235.132 417.766 235.921 411.447 235.562C451.776 220.584 478.088 162.898 486.203 135.926C477.413 142.468 459.561 145.825 451.733 146.686V146.041C490.511 127.62 504.802 82.4143 507.1 62.1142C493.484 72.2714 486.203 73.0891 484.264 72.2284C515.286 39.949 519.38 9.17598 519.81 5.73284C520.155 2.97834 519.954 1.42893 519.81 0.998535Z" fill="white"/>
</g>
<g filter="url(#filter1_dii)">
<path d="M61.9651 373.058C43.9122 364.445 54.4023 351.765 61.4771 350.569H142.715C149.545 354.157 156.669 366.455 139.299 372.579V397.831C139.299 398.74 139.906 399.533 140.785 399.766C153.118 403.029 176.049 409.482 179.796 412.054C184.431 415.085 193.945 424.351 194.921 437.175C196.385 448.658 199.41 472.535 199.8 476.171C200.776 485.741 202.289 505.981 200.532 510.383C198.337 515.885 193.214 519.474 185.163 521.149H14.8813C9.9209 520.511 0 516.029 0 503.205C1.3011 484.226 4.39122 444.543 6.34287 437.653C8.78243 429.04 8.53848 417.317 30.2506 408.944C39.8462 406.073 61.2331 399.614 61.965 399.374C62.2341 399.286 62.2059 399.047 62.2032 398.763L61.9651 373.058Z" fill="white"/>
</g>
<defs>
<filter id="filter0_d" x="217.787" y="0.998535" width="303.214" height="526.128" filterUnits="userSpaceOnUse" color-interpolation-filters="sRGB">
<feFlood flood-opacity="0" result="BackgroundImageFix"/>
<feColorMatrix in="SourceAlpha" type="matrix" values="0 0 0 0 0 0 0 0 0 0 0 0 0 0 0 0 0 0 127 0" result="hardAlpha"/>
<feOffset dx="-1" dy="4"/>
<feGaussianBlur stdDeviation="1"/>
<feColorMatrix type="matrix" values="0 0 0 0 0 0 0 0 0 0 0 0 0 0 0 0 0 0 0.1 0"/>
<feBlend mode="normal" in2="BackgroundImageFix" result="effect1_dropShadow"/>
<feBlend mode="normal" in="SourceGraphic" in2="effect1_dropShadow" result="shape"/>
</filter>
<filter id="filter1_dii" x="-1" y="349.569" width="206.34" height="174.58" filterUnits="userSpaceOnUse" color-interpolation-filters="sRGB">
<feFlood flood-opacity="0" result="BackgroundImageFix"/>
<feColorMatrix in="SourceAlpha" type="matrix" values="0 0 0 0 0 0 0 0 0 0 0 0 0 0 0 0 0 0 127 0" result="hardAlpha"/>
<feOffset dx="2" dy="1"/>
<feGaussianBlur stdDeviation="1"/>
<feColorMatrix type="matrix" values="0 0 0 0 0 0 0 0 0 0 0 0 0 0 0 0 0 0 0.1 0"/>
<feBlend mode="normal" in2="BackgroundImageFix" result="effect1_dropShadow"/>
<feBlend mode="normal" in="SourceGraphic" in2="effect1_dropShadow" result="shape"/>
<feColorMatrix in="SourceAlpha" type="matrix" values="0 0 0 0 0 0 0 0 0 0 0 0 0 0 0 0 0 0 127 0" result="hardAlpha"/>
<feOffset dx="3" dy="2"/>
<feGaussianBlur stdDeviation="2"/>
<feComposite in2="hardAlpha" operator="arithmetic" k2="-1" k3="1"/>
<feColorMatrix type="matrix" values="0 0 0 0 0 0 0 0 0 0 0 0 0 0 0 0 0 0 0.15 0"/>
<feBlend mode="normal" in2="shape" result="effect2_innerShadow"/>
<feColorMatrix in="SourceAlpha" type="matrix" values="0 0 0 0 0 0 0 0 0 0 0 0 0 0 0 0 0 0 127 0" result="hardAlpha"/>
<feOffset dx="-1"/>
<feGaussianBlur stdDeviation="0.5"/>
<feComposite in2="hardAlpha" operator="arithmetic" k2="-1" k3="1"/>
<feColorMatrix type="matrix" values="0 0 0 0 1 0 0 0 0 1 0 0 0 0 1 0 0 0 0.05 0"/>
<feBlend mode="normal" in2="effect2_innerShadow" result="effect3_innerShadow"/>
</filter>
</defs>
</svg>
